<svg width="14" height="19" viewBox="0 0 14 19" fill="none" xmlns="http://www.w3.org/2000/svg">
<path d="M7 8.92018C7.79113 8.92018 8.56448 8.68523 9.22228 8.24502C9.88008 7.80481 10.3928 7.17913 10.6955 6.4471C10.9983 5.71506 11.0775 4.90955 10.9231 4.13243C10.7688 3.3553 10.3878 2.64147 9.82843 2.08119C9.26902 1.52092 8.55629 1.13937 7.78036 0.984786C7.00444 0.830206 6.20017 0.909542 5.46927 1.21276C4.73836 1.51598 4.11365 2.02946 3.67412 2.68828C3.2346 3.34709 3 4.12165 3 4.914C3 5.9765 3.42143 6.99549 4.17157 7.7468C4.92172 8.49811 5.93913 8.92018 7 8.92018ZM7 2.9109C7.39556 2.9109 7.78224 3.02838 8.11114 3.24848C8.44004 3.46859 8.69638 3.78143 8.84776 4.14744C8.99913 4.51346 9.03874 4.91622 8.96157 5.30478C8.8844 5.69334 8.69392 6.05026 8.41421 6.3304C8.13451 6.61053 7.77814 6.80131 7.39018 6.8786C7.00222 6.95589 6.60009 6.91622 6.23463 6.76461C5.86918 6.613 5.55682 6.35626 5.33706 6.02686C5.1173 5.69745 5 5.31017 5 4.914C5 4.38274 5.21071 3.87325 5.58579 3.49759C5.96086 3.12194 6.46957 2.9109 7 2.9109Z" fill="#0A1034"/>
<path d="M7 10.9241C5.14348 10.9241 3.36301 11.6627 2.05025 12.9775C0.737498 14.2923 0 16.0755 0 17.9349C0 18.2005 0.105357 18.4553 0.292893 18.6431C0.48043 18.8309 0.734784 18.9364 1 18.9364C1.26522 18.9364 1.51957 18.8309 1.70711 18.6431C1.89464 18.4553 2 18.2005 2 17.9349C2 16.6068 2.52678 15.333 3.46447 14.3939C4.40215 13.4548 5.67392 12.9272 7 12.9272C8.32608 12.9272 9.59785 13.4548 10.5355 14.3939C11.4732 15.333 12 16.6068 12 17.9349C12 18.2005 12.1054 18.4553 12.2929 18.6431C12.4804 18.8309 12.7348 18.9364 13 18.9364C13.2652 18.9364 13.5196 18.8309 13.7071 18.6431C13.8946 18.4553 14 18.2005 14 17.9349C14 16.0755 13.2625 14.2923 11.9497 12.9775C10.637 11.6627 8.85652 10.9241 7 10.9241Z" fill="#0A1034"/>
</svg>
