<svg width="20" height="19" viewBox="0 0 20 19" fill="none" xmlns="http://www.w3.org/2000/svg">
<path d="M19.08 4.98439C18.9072 4.68489 18.6598 4.4353 18.3618 4.25997C18.0639 4.08464 17.7256 3.98955 17.38 3.98398H4.58L4 1.72307C3.9414 1.50481 3.81066 1.31284 3.62908 1.17842C3.44749 1.04399 3.22576 0.975028 3 0.982764H1C0.734784 0.982764 0.48043 1.08816 0.292893 1.27578C0.105357 1.46339 0 1.71785 0 1.98317C0 2.2485 0.105357 2.50295 0.292893 2.69056C0.48043 2.87818 0.734784 2.98358 1 2.98358H2.24L5 13.2477C5.0586 13.466 5.18934 13.658 5.37092 13.7924C5.55251 13.9268 5.77424 13.9958 6 13.988H15C15.1847 13.9875 15.3656 13.9358 15.5227 13.8387C15.6798 13.7415 15.8069 13.6028 15.89 13.4378L19.17 6.87516C19.3122 6.57705 19.3783 6.24837 19.3626 5.91845C19.3469 5.58853 19.2498 5.26763 19.08 4.98439ZM14.38 11.9872H6.76L5.13 5.9848H17.38L14.38 11.9872Z" fill="black"/>
<path d="M5.5 18.9897C6.32843 18.9897 7 18.3181 7 17.4897C7 16.6613 6.32843 15.9897 5.5 15.9897C4.67157 15.9897 4 16.6613 4 17.4897C4 18.3181 4.67157 18.9897 5.5 18.9897Z" fill="black"/>
<path d="M15.5 18.9897C16.3284 18.9897 17 18.3181 17 17.4897C17 16.6613 16.3284 15.9897 15.5 15.9897C14.6716 15.9897 14 16.6613 14 17.4897C14 18.3181 14.6716 18.9897 15.5 18.9897Z" fill="black"/>
</svg>
