<svg width="23" height="25" viewBox="0 0 23 25" fill="none" xmlns="http://www.w3.org/2000/svg">
<path d="M22.0091 9.90287L14.3407 1.27957C13.9812 0.876433 13.5436 0.554429 13.0557 0.33411C12.5678 0.113792 12.0404 0 11.5071 0C10.9738 0 10.4464 0.113792 9.95848 0.33411C9.47058 0.554429 9.03294 0.876433 8.67348 1.27957L0.997948 9.90287C0.498215 10.4657 0.168802 11.1648 0.0496684 11.9154C-0.0694656 12.666 0.0267986 13.4358 0.326784 14.1316C0.626769 14.8273 1.11758 15.419 1.73969 15.8349C2.3618 16.2508 3.08847 16.473 3.83155 16.4746H7.96153V21.0128C7.96153 21.2531 8.05483 21.4836 8.22089 21.6535C8.38696 21.8235 8.61219 21.919 8.84704 21.919H10.4409V23.9126C10.4409 24.201 10.5529 24.4776 10.7522 24.6815C10.9514 24.8854 11.2217 25 11.5035 25C11.7854 25 12.0556 24.8854 12.2549 24.6815C12.4542 24.4776 12.5661 24.201 12.5661 23.9126V21.919H14.16C14.3949 21.919 14.6201 21.8235 14.7862 21.6535C14.9523 21.4836 15.0455 21.2531 15.0455 21.0128V16.4746H19.1684C19.9115 16.473 20.6382 16.2508 21.2603 15.8349C21.8824 15.419 22.3732 14.8273 22.6732 14.1316C22.9732 13.4358 23.0695 12.666 22.9503 11.9154C22.8312 11.1648 22.5018 10.4657 22.0021 9.90287H22.0091ZM13.2745 20.0993H9.73254V16.4746H13.2745V20.0993ZM21.0599 13.4008C20.9037 13.7802 20.64 14.1031 20.303 14.3279C19.9659 14.5527 19.5707 14.6692 19.1684 14.6622H3.83864C3.43783 14.6622 3.04565 14.543 2.70978 14.3192C2.37391 14.0954 2.10881 13.7765 1.94673 13.4014C1.78464 13.0262 1.73254 12.611 1.79676 12.2061C1.86099 11.8013 2.03877 11.4242 2.30849 11.1208L9.97339 2.50111C10.1673 2.28301 10.4035 2.10876 10.667 1.98953C10.9305 1.87029 11.2154 1.8087 11.5035 1.8087C11.7916 1.8087 12.0766 1.87029 12.3401 1.98953C12.6036 2.10876 12.8398 2.28301 13.0337 2.50111L20.6986 11.1172C20.9741 11.4177 21.1557 11.7956 21.2201 12.2025C21.2845 12.6093 21.2287 13.0266 21.0599 13.4008Z" fill="#5755D9"/>
</svg>
