<svg width="16" height="16" viewBox="0 0 16 16" fill="none" xmlns="http://www.w3.org/2000/svg">
<path d="M15.8261 14.7174C15.8261 15.2574 15.3878 15.6956 14.8478 15.6956H1.15218C0.612181 15.6956 0.17392 15.2574 0.17392 14.7174V1.02173C0.17392 0.481733 0.612181 0.0434723 1.15218 0.0434723H14.8478C15.3878 0.0434723 15.8261 0.481733 15.8261 1.02173V14.7174Z" fill="#3B5998"/>
<path d="M10.9348 15.6957V9.82609H12.8913L13.3804 7.38044H10.9348V6.40218C10.9348 5.42392 11.4249 4.93479 12.4022 4.93479H13.3804V2.48914C12.8913 2.48914 12.2848 2.48914 11.4239 2.48914C9.62637 2.48914 8.48915 3.89832 8.48915 5.91305V7.38044H6.53262V9.82609H8.48915V15.6957H10.9348Z" fill="white"/>
</svg>
