<svg width="28" height="27" viewBox="0 0 28 27" fill="none" xmlns="http://www.w3.org/2000/svg">
<path d="M21.7244 5.52897H14.8132V0.813084C14.8132 0.406542 14.4066 0 14.0001 0C13.5935 0 13.187 0.406542 13.187 0.813084V5.52897H6.27577C3.34867 5.52897 0.990723 7.88692 0.990723 10.814V21.9533C0.990723 24.2299 2.86082 26.1 5.13745 26.1C6.35708 26.1 7.4954 25.6122 8.22717 24.6364L11.9674 20.3271C12.4552 19.7579 13.1057 19.4327 13.8375 19.4327H14.0814C14.8132 19.4327 15.5449 19.7579 15.9515 20.3271L19.6917 24.6364C20.5047 25.5308 21.6431 26.1 22.8627 26.1C25.1393 26.1 27.0094 24.2299 27.0094 21.9533V10.7327C27.0094 7.88692 24.6515 5.52897 21.7244 5.52897ZM25.3832 21.872C25.3832 23.2542 24.2449 24.3925 22.8627 24.3925C22.1309 24.3925 21.3991 24.0673 20.9926 23.4981L17.2524 19.1888C16.4393 18.2944 15.301 17.7252 14.0814 17.7252H13.8375C12.6178 17.7252 11.4795 18.2131 10.7477 19.1888L7.00754 23.4981C6.51969 24.0673 5.86923 24.3925 5.13745 24.3925C3.75521 24.3925 2.61689 23.2542 2.61689 21.872V10.7327C2.61689 8.7 4.24306 7.07383 6.27577 7.07383H21.7244C23.7571 7.07383 25.3832 8.7 25.3832 10.7327V21.872Z" fill="#5755D9"/>
<path d="M10.0161 12.6028C10.0161 13.0907 9.69083 13.4159 9.20298 13.4159H7.90204V14.7168C7.90204 15.2047 7.4955 15.5299 7.08896 15.5299C6.68242 15.5299 6.27587 15.2047 6.27587 14.7168V13.4159H5.05625C4.64971 13.4159 4.24316 13.0907 4.24316 12.6028C4.24316 12.1963 4.64971 11.7897 5.05625 11.7897H6.35718V10.4888C6.35718 10.0009 6.76373 9.6757 7.17027 9.6757C7.57681 9.6757 7.98335 10.0009 7.98335 10.4888V11.7897H9.28429C9.69083 11.7897 10.0161 12.115 10.0161 12.6028Z" fill="#5755D9"/>
<path d="M23.7572 12.6028C23.7572 13.0907 23.3506 13.4159 22.9441 13.4159H21.6431V14.7168C21.6431 15.2047 21.2366 15.5299 20.8301 15.5299C20.3422 15.5299 20.017 15.2047 20.017 14.7168V13.4159H18.716C18.3095 13.4159 17.903 13.0907 17.903 12.6028C17.903 12.1963 18.3095 11.7897 18.716 11.7897H20.017V10.4888C20.017 10.0009 20.3422 9.6757 20.8301 9.6757C21.2366 9.6757 21.6431 10.0009 21.6431 10.4888V11.7897H22.9441C23.3506 11.7897 23.7572 12.115 23.7572 12.6028Z" fill="#5755D9"/>
</svg>
