<svg width="19" height="20" viewBox="0 0 19 20" fill="none" xmlns="http://www.w3.org/2000/svg">
<path d="M16.2109 5.02646H15.8209C15.9408 4.70633 16.005 4.36808 16.0109 4.02631C15.99 3.21277 15.648 2.44058 15.0596 1.8784C14.4713 1.31622 13.6845 1.00972 12.8709 1.02584C12.0715 1.04311 11.2914 1.27504 10.6123 1.69733C9.93318 2.11963 9.3801 2.71676 9.01095 3.42621C8.64179 2.71676 8.08871 2.11963 7.40962 1.69733C6.73053 1.27504 5.95041 1.04311 5.15095 1.02584C4.33742 1.00972 3.55057 1.31622 2.96224 1.8784C2.37392 2.44058 2.03192 3.21277 2.01095 4.02631C2.01685 4.36808 2.08111 4.70633 2.20095 5.02646H1.81095C1.5478 5.05145 1.29222 5.12836 1.05898 5.25275C0.825741 5.37714 0.619467 5.54653 0.452086 5.75114C0.284704 5.95575 0.159535 6.19151 0.0838159 6.4448C0.00809679 6.69809 -0.0166706 6.96388 0.0109457 7.2268V10.8274C-0.0357699 11.3117 0.088726 11.797 0.362781 12.199C0.636835 12.601 1.04311 12.8943 1.51095 13.0277V17.3984C1.54182 17.852 1.74799 18.2758 2.08582 18.5801C2.42365 18.8844 2.86662 19.0453 3.32095 19.0286H14.7009C15.1618 19.0449 15.6105 18.8786 15.9494 18.5658C16.2884 18.253 16.4902 17.8191 16.5109 17.3584V13.0277C16.9788 12.8943 17.3851 12.601 17.6591 12.199C17.9332 11.797 18.0577 11.3117 18.0109 10.8274V7.2268C18.0386 6.96388 18.0138 6.69809 17.9381 6.4448C17.8624 6.19151 17.7372 5.95575 17.5698 5.75114C17.4024 5.54653 17.1961 5.37714 16.9629 5.25275C16.7297 5.12836 16.4741 5.05145 16.2109 5.02646ZM16.0109 7.2268V10.8274C16.0229 10.8935 16.0229 10.9612 16.0109 11.0274H10.0109V7.02677H16.0109C16.0229 7.0929 16.0229 7.16066 16.0109 7.2268ZM12.8709 3.02615C13.1542 3.00964 13.4326 3.1053 13.646 3.29246C13.8593 3.47962 13.9904 3.74323 14.0109 4.02631C13.9904 4.30938 13.8593 4.57299 13.646 4.76015C13.4326 4.94731 13.1542 5.04297 12.8709 5.02646H10.4109C10.5859 4.49215 10.9109 4.01946 11.3471 3.66478C11.7833 3.3101 12.3122 3.08841 12.8709 3.02615ZM4.01095 4.02631C4.03149 3.74323 4.16259 3.47962 4.37592 3.29246C4.58925 3.1053 4.86766 3.00964 5.15095 3.02615C5.70786 3.09022 6.2347 3.31274 6.66897 3.6673C7.10323 4.02185 7.42669 4.49356 7.60095 5.02646H5.15095C4.86766 5.04297 4.58925 4.94731 4.37592 4.76015C4.16259 4.57299 4.03149 4.30938 4.01095 4.02631ZM2.01095 7.2268C1.99894 7.16066 1.99894 7.0929 2.01095 7.02677H8.01095V11.0274H2.01095C1.99894 10.9612 1.99894 10.8935 2.01095 10.8274V7.2268ZM3.51095 13.0277H8.01095V17.0283H3.51095V13.0277ZM10.0109 17.0283V13.0277H14.5109V17.0283H10.0109Z" fill="#5755D9"/>
<rect x="1.01093" y="0.0258484" width="15" height="5" fill="#5755D9"/>
<path d="M16.2109 5.02646H15.8209C15.9408 4.70633 16.005 4.36808 16.0109 4.02631C15.99 3.21277 15.648 2.44058 15.0596 1.8784C14.4713 1.31622 13.6845 1.00972 12.8709 1.02584C12.0715 1.04311 11.2914 1.27504 10.6123 1.69733C9.93318 2.11963 9.3801 2.71676 9.01095 3.42621C8.64179 2.71676 8.08871 2.11963 7.40962 1.69733C6.73053 1.27504 5.95041 1.04311 5.15095 1.02584C4.33742 1.00972 3.55057 1.31622 2.96224 1.8784C2.37392 2.44058 2.03192 3.21277 2.01095 4.02631C2.01685 4.36808 2.08111 4.70633 2.20095 5.02646H1.81095C1.5478 5.05145 1.29222 5.12836 1.05898 5.25275C0.825741 5.37714 0.619467 5.54653 0.452086 5.75114C0.284704 5.95575 0.159535 6.19151 0.0838159 6.4448C0.00809679 6.69809 -0.0166706 6.96388 0.0109457 7.2268V10.8274C-0.0357699 11.3117 0.088726 11.797 0.362781 12.199C0.636835 12.601 1.04311 12.8943 1.51095 13.0277V17.3984C1.54182 17.852 1.74799 18.2758 2.08582 18.5801C2.42365 18.8844 2.86662 19.0453 3.32095 19.0286H14.7009C15.1618 19.0449 15.6105 18.8786 15.9494 18.5658C16.2884 18.253 16.4902 17.8191 16.5109 17.3584V13.0277C16.9788 12.8943 17.3851 12.601 17.6591 12.199C17.9332 11.797 18.0577 11.3117 18.0109 10.8274V7.2268C18.0386 6.96388 18.0138 6.69809 17.9381 6.4448C17.8624 6.19151 17.7372 5.95575 17.5698 5.75114C17.4024 5.54653 17.1961 5.37714 16.9629 5.25275C16.7297 5.12836 16.4741 5.05145 16.2109 5.02646ZM16.0109 7.2268V10.8274C16.0229 10.8935 16.0229 10.9612 16.0109 11.0274H10.0109V7.02677H16.0109C16.0229 7.0929 16.0229 7.16066 16.0109 7.2268ZM12.8709 3.02615C13.1542 3.00964 13.4326 3.1053 13.646 3.29246C13.8593 3.47962 13.9904 3.74323 14.0109 4.02631C13.9904 4.30938 13.8593 4.57299 13.646 4.76015C13.4326 4.94731 13.1542 5.04297 12.8709 5.02646H10.4109C10.5859 4.49215 10.9109 4.01946 11.3471 3.66478C11.7833 3.3101 12.3122 3.08841 12.8709 3.02615ZM4.01095 4.02631C4.03149 3.74323 4.16259 3.47962 4.37592 3.29246C4.58925 3.1053 4.86766 3.00964 5.15095 3.02615C5.70786 3.09022 6.2347 3.31274 6.66897 3.6673C7.10323 4.02185 7.42669 4.49356 7.60095 5.02646H5.15095C4.86766 5.04297 4.58925 4.94731 4.37592 4.76015C4.16259 4.57299 4.03149 4.30938 4.01095 4.02631ZM2.01095 7.2268C1.99894 7.16066 1.99894 7.0929 2.01095 7.02677H8.01095V11.0274H2.01095C1.99894 10.9612 1.99894 10.8935 2.01095 10.8274V7.2268ZM3.51095 13.0277H8.01095V17.0283H3.51095V13.0277ZM10.0109 17.0283V13.0277H14.5109V17.0283H10.0109Z" fill="#5755D9"/>
</svg>
