<svg width="16" height="16" viewBox="0 0 16 16" fill="none" xmlns="http://www.w3.org/2000/svg">
<path d="M5.62289 0.463228C3.74034 1.12466 2.1122 2.54929 1.19637 4.33007C0.891092 4.94062 0.636694 5.60206 0.534935 6.31437C0.178779 7.99339 0.433177 9.82506 1.19637 11.3514C1.70516 12.369 2.41748 13.234 3.33331 13.9463C4.14738 14.6077 5.11409 15.1165 6.18256 15.3709C7.50543 15.7271 8.87917 15.7271 10.1512 15.4218C11.3214 15.1674 12.4407 14.6077 13.3566 13.7428C14.3233 12.8778 14.9847 11.7585 15.3409 10.4865C15.7479 9.16362 15.7988 7.739 15.5444 6.36525C13.1022 6.36525 10.66 6.36525 8.21774 6.36525C8.21774 7.38284 8.21774 8.40043 8.21774 9.41802C9.64237 9.41802 11.067 9.41802 12.4407 9.41802C12.2881 10.3847 11.6775 11.3006 10.8635 11.8094C10.3547 12.1655 9.74413 12.369 9.13357 12.4708C8.52302 12.5725 7.86158 12.5725 7.25103 12.4708C6.64048 12.369 6.02992 12.0638 5.52113 11.7076C4.70705 11.1479 4.04562 10.283 3.74034 9.31626C3.38419 8.34955 3.38419 7.28108 3.74034 6.26349C3.99474 5.60206 4.3509 4.94062 4.85969 4.43183C5.47025 3.7704 6.28432 3.31248 7.20015 3.15984C7.96334 3.0072 8.72653 3.0072 9.48973 3.2616C10.1003 3.46512 10.7108 3.82128 11.1688 4.22831C11.6267 3.7704 12.1355 3.2616 12.5934 2.80369C12.8478 2.54929 13.1022 2.29489 13.3566 2.04049C12.6443 1.37906 11.7793 0.819385 10.8635 0.463228C9.18445 -0.0964463 7.30191 -0.0964463 5.62289 0.463228Z" fill="white"/>
<path d="M5.62287 0.463225C7.30189 -0.0964496 9.18443 -0.0964494 10.8635 0.514105C11.7793 0.870261 12.6442 1.37906 13.3566 2.09137C13.1022 2.34577 12.8478 2.60016 12.5934 2.85456C12.1354 3.31248 11.6266 3.82127 11.1687 4.27919C10.7108 3.82127 10.1003 3.46512 9.48971 3.31248C8.7774 3.10896 7.96332 3.05808 7.20013 3.21072C6.33518 3.41424 5.52111 3.87215 4.85967 4.48271C4.35088 4.9915 3.94384 5.65293 3.74033 6.31437C2.87537 5.65293 2.0613 4.9915 1.19635 4.33007C2.11218 2.54928 3.74032 1.12466 5.62287 0.463225Z" fill="#EA4335"/>
<path d="M0.534935 6.31438C0.687574 5.65295 0.891092 4.99151 1.19637 4.33008C2.06132 4.99151 2.87539 5.65295 3.74034 6.31438C3.38419 7.28109 3.38419 8.34956 3.74034 9.36715C2.87539 10.0286 2.06132 10.69 1.19637 11.3514C0.433177 9.77418 0.178779 7.9934 0.534935 6.31438Z" fill="#FBBC05"/>
<path d="M8.16684 6.36526C10.6091 6.36526 13.0513 6.36526 15.4935 6.36526C15.7479 7.73901 15.697 9.16364 15.29 10.4865C14.9338 11.7076 14.2724 12.827 13.3057 13.7428C12.4916 13.0814 11.6775 12.4708 10.8126 11.8094C11.6266 11.2497 12.1863 10.3847 12.3898 9.41803C10.9652 9.41803 9.54059 9.41803 8.16684 9.41803C8.16684 8.40044 8.16684 7.38285 8.16684 6.36526Z" fill="#4285F4"/>
<path d="M1.19635 11.3515C2.0613 10.69 2.87537 10.0286 3.74033 9.36716C4.0456 10.3339 4.70704 11.1988 5.52111 11.7585C6.0299 12.1147 6.64046 12.369 7.25101 12.5217C7.86156 12.6234 8.47212 12.6234 9.13355 12.5217C9.74411 12.4199 10.3547 12.1655 10.8635 11.8603C11.6775 12.5217 12.4916 13.1322 13.3566 13.7937C12.4407 14.6077 11.3723 15.1674 10.1511 15.4727C8.82828 15.778 7.45453 15.778 6.18254 15.4218C5.16495 15.1674 4.19824 14.6586 3.33329 13.9972C2.46834 13.234 1.70515 12.3182 1.19635 11.3515Z" fill="#34A853"/>
</svg>
