<svg width="19" height="19" viewBox="0 0 19 19" fill="none" xmlns="http://www.w3.org/2000/svg">
<path d="M18.8132 17.9911C18.8132 18.2464 18.703 18.4912 18.507 18.6716C18.311 18.8521 18.0452 18.9535 17.768 18.9535H1.04518C0.767978 18.9535 0.502133 18.8521 0.306125 18.6716C0.110117 18.4912 2.51585e-07 18.2464 2.51585e-07 17.9911V7.87659C-0.000110249 7.72993 0.036181 7.5852 0.106102 7.45343C0.176023 7.32167 0.277724 7.20636 0.403438 7.11631L8.76484 1.12843C8.94831 0.997009 9.17413 0.925659 9.40658 0.925659C9.63902 0.925659 9.86484 0.997009 10.0483 1.12843L18.4097 7.11631C18.5354 7.20636 18.6371 7.32167 18.7071 7.45343C18.777 7.5852 18.8133 7.72993 18.8132 7.87659V17.9911ZM16.7228 17.0288V8.34622L9.40658 3.10706L2.09035 8.34622V17.0288H16.7228Z" fill="black"/>
</svg>
