<svg width="74" height="74" viewBox="0 0 74 74" fill="none" xmlns="http://www.w3.org/2000/svg">
<path d="M36.8933 68.2933C54.2719 68.2933 68.36 54.2052 68.36 36.8267C68.36 19.4481 54.2719 5.35999 36.8933 5.35999C19.5148 5.35999 5.42667 19.4481 5.42667 36.8267C5.42667 54.2052 19.5148 68.2933 36.8933 68.2933Z" fill="#5755D9"/>
<path d="M36.494 41.987C36.1377 41.9919 35.7975 42.1356 35.5455 42.3875C35.2936 42.6395 35.1499 42.9798 35.145 43.336V48.736C35.145 49.094 35.2872 49.4374 35.5404 49.6906C35.7936 49.9438 36.1369 50.086 36.495 50.086C36.853 50.086 37.1964 49.9438 37.4496 49.6906C37.7027 49.4374 37.845 49.094 37.845 48.736V43.336C37.8401 42.9798 37.6964 42.6395 37.4444 42.3875C37.1925 42.1356 36.8522 41.9919 36.496 41.987H36.494ZM36.494 31.192C35.0163 31.1854 33.5481 31.4278 32.151 31.909C30.8052 32.3707 29.5397 33.0394 28.4 33.891V25.791C28.3812 24.7253 28.5808 23.667 28.9865 22.6814C29.3922 21.6958 29.9954 20.8037 30.759 20.06C31.503 19.2958 32.3958 18.6921 33.3821 18.2862C34.3685 17.8803 35.4275 17.6808 36.494 17.7C37.5602 17.6809 38.6191 17.8805 39.6053 18.2864C40.5915 18.6923 41.484 19.2959 42.228 20.06C42.9924 20.804 43.5963 21.6967 44.0023 22.683C44.4084 23.6694 44.6081 24.7285 44.589 25.795H47.289C47.2994 24.352 47.0125 22.9222 46.446 21.595C45.3436 19.005 43.28 16.9432 40.689 15.843C39.3633 15.2772 37.9353 14.9902 36.494 15C35.053 14.9904 33.6254 15.2773 32.3 15.843C29.7077 16.9441 27.6436 19.0079 26.542 21.6C25.9755 22.9272 25.6885 24.357 25.699 25.8V36.632C24.8502 37.7666 24.1817 39.0254 23.717 40.364C23.2347 41.7536 22.9922 43.2151 23 44.686C22.9895 46.4896 23.3481 48.2762 24.054 49.936C25.4163 53.182 27.998 55.7637 31.244 57.126C32.9037 57.8318 34.6904 58.1905 36.494 58.18C38.2976 58.1905 40.0842 57.8318 41.744 57.126C44.9899 55.7637 47.5717 53.182 48.934 49.936C49.6298 48.2732 49.9882 46.4886 49.9882 44.686C49.9882 42.8834 49.6298 41.0988 48.934 39.436C47.5717 36.19 44.9899 33.6083 41.744 32.246C40.0842 31.5402 38.2976 31.1815 36.494 31.192ZM36.494 55.481C35.0509 55.4915 33.6212 55.2045 32.294 54.638C29.7026 53.5367 27.6393 51.4734 26.538 48.882C25.9813 47.5533 25.6947 46.1271 25.6947 44.6865C25.6947 43.2459 25.9813 41.8197 26.538 40.491C27.6405 37.8981 29.7062 35.8343 32.3 34.734C33.6272 34.1675 35.0569 33.8805 36.5 33.891C37.943 33.8805 39.3727 34.1675 40.7 34.734C43.2913 35.8353 45.3547 37.8986 46.456 40.49C47.0126 41.8187 47.2993 43.2449 47.2993 44.6855C47.2993 46.1261 47.0126 47.5523 46.456 48.881C45.3547 51.4724 43.2913 53.5357 40.7 54.637C39.371 55.2046 37.9391 55.492 36.494 55.481Z" fill="white"/>
<path d="M36.8933 70.6533C55.5753 70.6533 70.72 55.5086 70.72 36.8267C70.72 18.1447 55.5753 3 36.8933 3C18.2114 3 3.06668 18.1447 3.06668 36.8267C3.06668 55.5086 18.2114 70.6533 36.8933 70.6533Z" stroke="white" stroke-width="6" stroke-miterlimit="10"/>
</svg>
