<svg width="26" height="25" viewBox="0 0 26 25" fill="none" xmlns="http://www.w3.org/2000/svg">
<path d="M11.8151 2.59686H18.7503V10.8541H11.8151C9.55018 10.8541 7.72388 9.02779 7.72388 6.76289H7.72393L7.72383 6.75977C7.65085 4.42419 9.54839 2.59686 11.8151 2.59686ZM5.60313 7.53648H6.04031C6.45874 10.3124 8.87451 12.4761 11.7402 12.4761H18.7755C19.654 12.4761 20.3723 11.7577 20.3723 10.8792V10.5302H24.3138C24.7367 10.5302 25.1622 10.1924 25.1622 9.68176C25.1622 9.17109 24.7367 8.83333 24.3138 8.83333H20.3723V4.54277H24.3138C24.7367 4.54277 25.1622 4.20501 25.1622 3.69434C25.1622 3.18367 24.7367 2.84591 24.3138 2.84591H20.3723V2.49686C20.3723 1.61836 19.654 0.9 18.7755 0.9H11.7402C8.80267 0.9 6.38419 3.06151 6.03799 5.83962H5.60313C3.07809 5.83962 1.01256 7.90515 1.01256 10.4302V12.8252C1.01256 15.3502 3.07809 17.4157 5.60313 17.4157H20.4968C22.0882 17.4157 23.3905 18.7181 23.3905 20.3094C23.3905 21.9007 22.0882 23.2031 20.4968 23.2031H1.78615C1.56652 23.2031 1.35526 23.312 1.20089 23.4663C1.04653 23.6207 0.93772 23.8319 0.93772 24.0516C0.93772 24.5622 1.36332 24.9 1.78615 24.9H20.4968C23.0219 24.9 25.0874 22.8345 25.0874 20.3094C25.0874 17.7844 23.0219 15.7189 20.4968 15.7189H5.60313C4.01182 15.7189 2.70942 14.4165 2.70942 12.8252V10.4302C2.70942 8.83888 4.01182 7.53648 5.60313 7.53648Z" fill="#5755D9" stroke="#5755D9" stroke-width="0.2"/>
</svg>
