<svg width="24" height="24" viewBox="0 0 24 24" fill="none" xmlns="http://www.w3.org/2000/svg">
<path d="M1.45833 23.15H22.5417C22.8766 23.15 23.15 22.8766 23.15 22.5417V18.875C23.15 18.5401 22.8766 18.2667 22.5417 18.2667H1.45833C1.12341 18.2667 0.85 18.5401 0.85 18.875V22.5417C0.85 22.8766 1.12341 23.15 1.45833 23.15ZM21.9333 19.4833V21.9333H2.06667V19.4833H21.9333Z" fill="#5755D9" stroke="#5755D9" stroke-width="0.3"/>
<path d="M9.25 9.1H9.1V9.25V18.875C9.1 19.2099 9.37341 19.4833 9.70833 19.4833H12.4583C12.7933 19.4833 13.0667 19.2099 13.0667 18.875V9.25V9.1H12.9167H12H11.85V9.25V18.2667H10.3167V9.25V9.1H10.1667H9.25Z" fill="#5755D9" stroke="#5755D9" stroke-width="0.3"/>
<path d="M6.35 5.58333C6.35 8.19343 8.47324 10.3167 11.0833 10.3167C13.6934 10.3167 15.8167 8.19343 15.8167 5.58333C15.8167 2.97324 13.6934 0.85 11.0833 0.85C8.47324 0.85 6.35 2.97324 6.35 5.58333ZM7.56667 5.58333C7.56667 3.64401 9.14401 2.06667 11.0833 2.06667C13.0227 2.06667 14.6 3.64401 14.6 5.58333C14.6 7.52266 13.0227 9.1 11.0833 9.1C9.14401 9.1 7.56667 7.52266 7.56667 5.58333Z" fill="#5755D9" stroke="#5755D9" stroke-width="0.3"/>
<path d="M15.2083 19.4833H18.875C19.2099 19.4833 19.4833 19.2099 19.4833 18.875V14.2917C19.4833 13.9567 19.2099 13.6833 18.875 13.6833H15.2083C14.8734 13.6833 14.6 13.9567 14.6 14.2917V18.875C14.6 19.2099 14.8734 19.4833 15.2083 19.4833ZM18.2667 14.9V18.2667H15.8167V14.9H18.2667Z" fill="#5755D9" stroke="#5755D9" stroke-width="0.3"/>
</svg>
