<svg width="32" height="19" viewBox="0 0 32 19" fill="none" xmlns="http://www.w3.org/2000/svg">
<path d="M18.6755 16.2467H18.5755V16.3467C18.5755 16.463 18.5467 16.5436 18.5086 16.6006C18.4702 16.6583 18.4181 16.698 18.3631 16.7255C18.3076 16.7533 18.2509 16.7676 18.2073 16.7749C18.1857 16.7785 18.1679 16.7802 18.1559 16.7811C18.1499 16.7815 18.1455 16.7817 18.1427 16.7818L18.14 16.7819L18.1399 16.7819L18.1399 16.7819L18.1397 16.7819L18.1397 16.7819H13.86L13.86 16.7819L13.8598 16.7819L13.8598 16.7819L13.8597 16.7819L13.857 16.7818C13.8542 16.7817 13.8498 16.7815 13.8438 16.7811C13.8318 16.7802 13.8141 16.7785 13.7925 16.7749C13.7489 16.7676 13.6922 16.7533 13.6368 16.7256C13.5818 16.698 13.5298 16.6583 13.4913 16.6006C13.4533 16.5436 13.4245 16.463 13.4245 16.3467V16.2467H13.3245H0.779297H0.679297V16.3467V16.7251C0.679297 17.0879 0.767655 17.3667 0.905359 17.5793C1.04275 17.7915 1.22544 17.932 1.40553 18.0246C1.58516 18.1171 1.76362 18.1628 1.89638 18.1856C1.96298 18.197 2.01872 18.2028 2.0582 18.2057C2.07796 18.2072 2.0937 18.2079 2.10476 18.2083L2.11777 18.2086L2.12149 18.2087L2.12264 18.2087L2.12302 18.2087L2.12317 18.2087C2.12323 18.2087 2.12329 18.2087 2.12329 18.1087V18.2087H29.832V18.1087C29.832 18.2087 29.832 18.2087 29.8321 18.2087L29.8322 18.2087L29.8326 18.2087L29.8338 18.2087L29.8376 18.2086L29.8509 18.2083C29.8622 18.2079 29.8784 18.2072 29.8987 18.2057C29.9394 18.2028 29.9967 18.1971 30.0653 18.1857C30.2021 18.163 30.3859 18.1174 30.5709 18.0252C30.7564 17.9329 30.9449 17.7927 31.0868 17.5806C31.2292 17.3678 31.3207 17.0886 31.3207 16.7251V16.3467V16.2467H31.2207H18.6755Z" fill="#5755D9" stroke="#5755D9" stroke-width="0.2"/>
<path d="M26.7003 15.3887V15.4887H26.8003H28.2435H28.3435V15.3887V3.14612V3.0825C28.3435 1.87902 27.3648 0.9 26.1607 0.9H5.74821C4.54469 0.9 3.56602 1.87967 3.56602 3.0825V3.14642V15.3887V15.4887H3.66602H5.10924H5.20924V15.3887V3.14642V3.0825C5.20924 2.78542 5.45102 2.54323 5.74821 2.54323H26.1607C26.458 2.54323 26.7003 2.78555 26.7003 3.0825V3.14612V15.3887ZM15.9546 1.59315C16.0253 1.59315 16.0829 1.65053 16.0829 1.72146C16.0829 1.7923 16.0251 1.84977 15.9546 1.84977C15.8835 1.84977 15.8263 1.79256 15.8263 1.72146C15.8263 1.65036 15.8835 1.59315 15.9546 1.59315Z" fill="#5755D9" stroke="#5755D9" stroke-width="0.2"/>
</svg>
