<svg width="14" height="17" viewBox="0 0 14 17" fill="none" xmlns="http://www.w3.org/2000/svg">
<path d="M10.8133 16.5653H2.94667C2.32076 16.5653 1.72048 16.3167 1.2779 15.8741C0.835312 15.4315 0.58667 14.8313 0.58667 14.2053L0.58667 8.69868C0.58667 8.07277 0.835312 7.47249 1.2779 7.02991C1.72048 6.58732 2.32076 6.33868 2.94667 6.33868V4.76535C2.94667 3.72216 3.36107 2.7217 4.09872 1.98406C4.83636 1.24642 5.83682 0.832012 6.88 0.832012C7.92319 0.832012 8.92365 1.24642 9.66129 1.98406C10.3989 2.7217 10.8133 3.72216 10.8133 4.76535V6.33868C11.4392 6.33868 12.0395 6.58732 12.4821 7.02991C12.9247 7.47249 13.1733 8.07277 13.1733 8.69868V14.2053C13.1733 14.8313 12.9247 15.4315 12.4821 15.8741C12.0395 16.3167 11.4392 16.5653 10.8133 16.5653ZM2.94667 7.91201C2.73803 7.91201 2.53794 7.99489 2.39041 8.14242C2.24288 8.28995 2.16 8.49004 2.16 8.69868V14.2053C2.16 14.414 2.24288 14.6141 2.39041 14.7616C2.53794 14.9091 2.73803 14.992 2.94667 14.992H10.8133C11.022 14.992 11.2221 14.9091 11.3696 14.7616C11.5171 14.6141 11.6 14.414 11.6 14.2053V8.69868C11.6 8.49004 11.5171 8.28995 11.3696 8.14242C11.2221 7.99489 11.022 7.91201 10.8133 7.91201H2.94667ZM6.88 2.40535C6.25409 2.40535 5.65382 2.65399 5.21123 3.09657C4.76865 3.53916 4.52 4.13943 4.52 4.76535V6.33868H9.24V4.76535C9.24 4.13943 8.99136 3.53916 8.54878 3.09657C8.10619 2.65399 7.50591 2.40535 6.88 2.40535ZM6.88 13.4187C6.67137 13.4187 6.47127 13.3358 6.32375 13.1883C6.17622 13.0407 6.09334 12.8406 6.09334 12.632V10.272C6.09334 10.0634 6.17622 9.86328 6.32375 9.71576C6.47127 9.56823 6.67137 9.48535 6.88 9.48535C7.08864 9.48535 7.28873 9.56823 7.43626 9.71576C7.58379 9.86328 7.66667 10.0634 7.66667 10.272V12.632C7.66667 12.8406 7.58379 13.0407 7.43626 13.1883C7.28873 13.3358 7.08864 13.4187 6.88 13.4187Z" fill="#42526E"/>
</svg>
