<svg width="84" height="63" viewBox="0 0 84 63" fill="none" xmlns="http://www.w3.org/2000/svg">
<path d="M13.036 35.051H57.272C59.3806 35.051 61.0901 33.3415 61.0901 31.2328C61.0901 29.1242 59.3806 27.4147 57.272 27.4147H13.036L17.9726 22.4783C19.4637 20.9874 19.4637 18.5698 17.9726 17.0787C16.482 15.5875 14.0643 15.5875 12.573 17.0787L1.11923 28.5324C1.03065 28.6207 0.947159 28.7131 0.867742 28.8098C0.848396 28.8335 0.831851 28.859 0.813015 28.8831C0.754724 28.9572 0.697451 29.0316 0.645015 29.11C0.629743 29.1329 0.61727 29.157 0.602252 29.1802C0.549816 29.2622 0.498398 29.3449 0.452071 29.4312C0.443162 29.4482 0.43578 29.4663 0.426871 29.4834C0.378762 29.5768 0.332435 29.6715 0.291962 29.7692C0.286871 29.7812 0.283308 29.7939 0.278471 29.8061C0.236981 29.909 0.198545 30.0131 0.165963 30.1202C0.161636 30.1337 0.159345 30.1477 0.155527 30.1615C0.124727 30.2666 0.0964723 30.3727 0.074836 30.4814C0.0684724 30.5138 0.0656724 30.5471 0.0598179 30.5797C0.0440362 30.6698 0.0282544 30.7599 0.0193454 30.8518C0.00636361 30.9778 0 31.1051 0 31.2328C0 31.3606 0.00636361 31.4879 0.0193454 31.6142C0.0282544 31.7073 0.0445453 31.7982 0.0600725 31.8891C0.0656724 31.9206 0.0684724 31.953 0.074836 31.9843C0.0967268 32.094 0.124727 32.2011 0.155781 32.3073C0.159599 32.3198 0.16189 32.333 0.165708 32.3455C0.198545 32.4531 0.236981 32.5583 0.278981 32.6621C0.283562 32.6733 0.286871 32.6853 0.291708 32.6965C0.332435 32.795 0.379017 32.8902 0.427634 32.9841C0.436034 33.0007 0.443162 33.018 0.451816 33.0345C0.498652 33.1213 0.550325 33.2048 0.603525 33.2875C0.617779 33.3099 0.629997 33.3336 0.644761 33.3555C0.697452 33.4341 0.755233 33.509 0.813269 33.5833C0.831851 33.6072 0.848396 33.6324 0.867487 33.6559C0.94716 33.7523 1.03065 33.845 1.11898 33.9333L12.5727 45.387C13.3183 46.1329 14.2955 46.5055 15.2727 46.5055C16.2499 46.5055 17.2271 46.1329 17.9724 45.387C19.4635 43.8959 19.4635 41.4785 17.9724 39.9874L13.036 35.051Z" fill="#5755D9"/>
<path d="M52.7669 0C42.3449 0 32.6483 5.17031 26.8281 13.8302C25.6521 15.5802 26.1174 17.9525 27.8674 19.1288C29.6176 20.3048 31.9897 19.84 33.1663 18.0895C37.565 11.5438 44.8923 7.63608 52.7669 7.63608C65.778 7.63633 76.3634 18.2216 76.3634 31.2329C76.3634 44.2441 65.778 54.8294 52.7669 54.8294C44.9155 54.8294 37.6002 50.9392 33.1981 44.4233C32.0172 42.6759 29.6444 42.2167 27.8967 43.397C26.1495 44.5776 25.6898 46.951 26.8704 48.6982C32.6946 57.3191 42.3754 62.4657 52.7669 62.4657C69.9886 62.4657 83.9998 48.4548 83.9998 31.2329C83.9998 14.0109 69.9886 0 52.7669 0Z" fill="#5755D9"/>
</svg>
