<svg width="28" height="23" viewBox="0 0 28 23" fill="none" xmlns="http://www.w3.org/2000/svg">
<path d="M25.5556 0H1.7037C0.766667 0 0 0.766667 0 1.7037V21.2963C0 22.2333 0.766667 23 1.7037 23H25.5556C26.4926 23 27.2593 22.2333 27.2593 21.2963V1.7037C27.2593 0.766667 26.4926 0 25.5556 0ZM1.7037 1.7037H19.2519V21.2963H1.7037V1.7037ZM25.5556 21.2963H20.9556V1.7037H25.5556V21.2963Z" fill="#5755D9"/>
<path d="M10.4778 18.7407C6.4741 18.7407 3.23706 15.5037 3.23706 11.5C3.23706 7.4963 6.4741 4.25926 10.4778 4.25926C14.4815 4.25926 17.7185 7.4963 17.7185 11.5C17.7185 15.5037 14.4815 18.7407 10.4778 18.7407ZM10.4778 5.96296C7.41113 5.96296 4.94076 8.43333 4.94076 11.5C4.94076 14.5667 7.41113 17.037 10.4778 17.037C13.5445 17.037 16.0148 14.5667 16.0148 11.5C16.0148 8.43333 13.5445 5.96296 10.4778 5.96296Z" fill="#5755D9"/>
<path d="M10.4778 14.0556C9.02965 14.0556 7.92224 12.9481 7.92224 11.5C7.92224 10.0519 9.02965 8.94444 10.4778 8.94444C11.9259 8.94444 13.0334 10.0519 13.0334 11.5C13.0334 12.9481 11.9259 14.0556 10.4778 14.0556ZM10.4778 10.6481C9.96669 10.6481 9.62594 10.9889 9.62594 11.5C9.62594 12.0111 9.96669 12.3519 10.4778 12.3519C10.9889 12.3519 11.3296 12.0111 11.3296 11.5C11.3296 10.9889 10.9889 10.6481 10.4778 10.6481Z" fill="#5755D9"/>
</svg>
