<svg width="18" height="13" viewBox="0 0 18 13" fill="none" xmlns="http://www.w3.org/2000/svg">
<path d="M1 2.02631C1.55228 2.02631 2 1.57859 2 1.02631C2 0.474021 1.55228 0.0263062 1 0.0263062C0.447715 0.0263062 0 0.474021 0 1.02631C0 1.57859 0.447715 2.02631 1 2.02631Z" fill="#5755D9"/>
<path d="M1 7.02631C1.55228 7.02631 2 6.57859 2 6.02631C2 5.47402 1.55228 5.02631 1 5.02631C0.447715 5.02631 0 5.47402 0 6.02631C0 6.57859 0.447715 7.02631 1 7.02631Z" fill="#5755D9"/>
<path d="M1 12.0278C1.55228 12.0278 2 11.5801 2 11.0278C2 10.4756 1.55228 10.0278 1 10.0278C0.447715 10.0278 0 10.4756 0 11.0278C0 11.5801 0.447715 12.0278 1 12.0278Z" fill="#5755D9"/>
<path d="M17.06 5.02631H4.94C4.42085 5.02631 4 5.44716 4 5.96631V6.08631C4 6.60545 4.42085 7.02631 4.94 7.02631H17.06C17.5791 7.02631 18 6.60545 18 6.08631V5.96631C18 5.44716 17.5791 5.02631 17.06 5.02631Z" fill="#5755D9"/>
<path d="M17.06 10.0278H4.94C4.42085 10.0278 4 10.4487 4 10.9678V11.0878C4 11.607 4.42085 12.0278 4.94 12.0278H17.06C17.5791 12.0278 18 11.607 18 11.0878V10.9678C18 10.4487 17.5791 10.0278 17.06 10.0278Z" fill="#5755D9"/>
<path d="M17.06 0.0263062H4.94C4.42085 0.0263062 4 0.447159 4 0.966306V1.08631C4 1.60545 4.42085 2.02631 4.94 2.02631H17.06C17.5791 2.02631 18 1.60545 18 1.08631V0.966306C18 0.447159 17.5791 0.0263062 17.06 0.0263062Z" fill="#5755D9"/>
</svg>
