<svg width="24" height="25" viewBox="0 0 24 25" fill="none" xmlns="http://www.w3.org/2000/svg">
<path fill-rule="evenodd" clip-rule="evenodd" d="M12 4.00553C8.66879 4.00553 5.96876 6.70598 5.96876 10.0377V15.2889C5.96876 15.4044 5.94875 15.519 5.90963 15.6277L5.54791 16.6325H18.4521L18.0904 15.6277C18.0513 15.519 18.0313 15.4044 18.0313 15.2889V10.0377C18.0313 6.70598 15.3312 4.00553 12 4.00553ZM3.96876 10.0377C3.96876 5.60124 7.56422 2.00522 12 2.00522C16.4358 2.00522 20.0313 5.60124 20.0313 10.0377V15.1143L20.8159 17.2938C20.9262 17.6003 20.8804 17.9412 20.6932 18.2077C20.5059 18.4742 20.2007 18.6328 19.875 18.6328H4.12501C3.79935 18.6328 3.4941 18.4742 3.30685 18.2077C3.1196 17.9412 3.07382 17.6003 3.18414 17.2938L3.96876 15.1143V10.0377Z" fill="#5755D9"/>
<path fill-rule="evenodd" clip-rule="evenodd" d="M8.625 16.6328C9.17728 16.6328 9.625 17.0805 9.625 17.6328C9.625 18.9446 10.6882 20.0078 12 20.0078C13.3118 20.0078 14.375 18.9446 14.375 17.6328C14.375 17.0805 14.8227 16.6328 15.375 16.6328C15.9273 16.6328 16.375 17.0805 16.375 17.6328C16.375 20.0492 14.4164 22.0078 12 22.0078C9.58359 22.0078 7.625 20.0492 7.625 17.6328C7.625 17.0805 8.07272 16.6328 8.625 16.6328Z" fill="#5755D9"/>
</svg>
