<svg width="20" height="20" viewBox="0 0 20 20" fill="none" xmlns="http://www.w3.org/2000/svg">
<path d="M10 19.75C9.4561 19.75 8.92442 19.5887 8.47218 19.2865C8.01995 18.9844 7.66747 18.5549 7.45933 18.0524C7.25119 17.5499 7.19673 16.997 7.30284 16.4635C7.40895 15.9301 7.67086 15.4401 8.05546 15.0555C8.44005 14.6709 8.93006 14.409 9.4635 14.3028C9.99695 14.1967 10.5499 14.2512 11.0524 14.4593C11.5549 14.6675 11.9844 15.0199 12.2865 15.4722C12.5887 15.9244 12.75 16.4561 12.75 17C12.7492 17.7291 12.4592 18.4281 11.9437 18.9437C11.4281 19.4592 10.7291 19.7492 10 19.75ZM10 15.75C9.68973 15.747 9.38944 15.8595 9.15753 16.0657C8.92562 16.2718 8.77866 16.5568 8.74524 16.8653C8.71182 17.1738 8.79432 17.4837 8.9767 17.7347C9.15907 17.9857 9.4283 18.1599 9.732 18.2235C10.0357 18.287 10.3522 18.2353 10.6199 18.0784C10.8876 17.9216 11.0874 17.6708 11.1805 17.3748C11.2735 17.0787 11.2531 16.7587 11.1233 16.4769C10.9934 16.1951 10.7634 15.9716 10.478 15.85C10.3268 15.7854 10.1644 15.7514 10 15.75ZM17 12.75C16.4561 12.75 15.9244 12.5887 15.4722 12.2865C15.0199 11.9844 14.6675 11.5549 14.4593 11.0524C14.2512 10.5499 14.1967 9.99695 14.3028 9.4635C14.409 8.93006 14.6709 8.44005 15.0555 8.05546C15.4401 7.67086 15.9301 7.40895 16.4635 7.30284C16.997 7.19673 17.5499 7.25119 18.0524 7.45933C18.5549 7.66747 18.9844 8.01995 19.2865 8.47218C19.5887 8.92442 19.75 9.4561 19.75 10C19.7492 10.7291 19.4592 11.4281 18.9437 11.9437C18.4281 12.4592 17.7291 12.7492 17 12.75ZM17 8.75C16.6897 8.74701 16.3894 8.85953 16.1575 9.06566C15.9256 9.2718 15.7787 9.55682 15.7452 9.86529C15.7118 10.1738 15.7943 10.4837 15.9767 10.7347C16.1591 10.9857 16.4283 11.1599 16.732 11.2235C17.0357 11.287 17.3522 11.2353 17.6199 11.0784C17.8876 10.9216 18.0874 10.6708 18.1805 10.3748C18.2735 10.0787 18.2531 9.75872 18.1233 9.47691C17.9934 9.19509 17.7634 8.97164 17.478 8.85C17.3272 8.78552 17.165 8.75153 17.001 8.75H17ZM10 12.75C9.4561 12.75 8.92442 12.5887 8.47218 12.2865C8.01995 11.9844 7.66747 11.5549 7.45933 11.0524C7.25119 10.5499 7.19673 9.99695 7.30284 9.4635C7.40895 8.93006 7.67086 8.44005 8.05546 8.05546C8.44005 7.67086 8.93006 7.40895 9.4635 7.30284C9.99695 7.19673 10.5499 7.25119 11.0524 7.45933C11.5549 7.66747 11.9844 8.01995 12.2865 8.47218C12.5887 8.92442 12.75 9.4561 12.75 10C12.7492 10.7291 12.4592 11.4281 11.9437 11.9437C11.4281 12.4592 10.7291 12.7492 10 12.75ZM10 8.75C9.75277 8.75 9.5111 8.82331 9.30554 8.96066C9.09998 9.09802 8.93976 9.29324 8.84515 9.52165C8.75054 9.75005 8.72579 10.0014 8.77402 10.2439C8.82225 10.4863 8.9413 10.7091 9.11612 10.8839C9.29093 11.0587 9.51366 11.1778 9.75614 11.226C9.99861 11.2742 10.2499 11.2495 10.4784 11.1549C10.7068 11.0602 10.902 10.9 11.0393 10.6945C11.1767 10.4889 11.25 10.2472 11.25 10C11.2495 9.66864 11.1176 9.35101 10.8833 9.1167C10.649 8.8824 10.3314 8.75053 10 8.75ZM3 12.75C2.4561 12.75 1.92442 12.5887 1.47218 12.2865C1.01995 11.9844 0.667473 11.5549 0.459333 11.0524C0.251192 10.5499 0.196732 9.99695 0.302842 9.4635C0.408951 8.93006 0.670863 8.44005 1.05546 8.05546C1.44005 7.67086 1.93006 7.40895 2.4635 7.30284C2.99695 7.19673 3.54988 7.25119 4.05238 7.45933C4.55488 7.66747 4.98437 8.01995 5.28654 8.47218C5.58872 8.92442 5.75 9.4561 5.75 10C5.74894 10.729 5.45887 11.4279 4.94338 11.9434C4.42788 12.4589 3.72902 12.7489 3 12.75ZM3 8.75C2.75277 8.75 2.5111 8.82331 2.30554 8.96066C2.09998 9.09802 1.93976 9.29324 1.84515 9.52165C1.75054 9.75005 1.72579 10.0014 1.77402 10.2439C1.82225 10.4863 1.9413 10.7091 2.11612 10.8839C2.29093 11.0587 2.51366 11.1778 2.75614 11.226C2.99861 11.2742 3.24995 11.2495 3.47836 11.1549C3.70676 11.0602 3.90199 10.9 4.03934 10.6945C4.17669 10.4889 4.25 10.2472 4.25 10C4.24947 9.66864 4.11761 9.35101 3.8833 9.1167C3.64899 8.8824 3.33136 8.75053 3 8.75ZM17 5.75C16.4561 5.75 15.9244 5.58872 15.4722 5.28654C15.0199 4.98437 14.6675 4.55488 14.4593 4.05238C14.2512 3.54988 14.1967 2.99695 14.3028 2.4635C14.409 1.93006 14.6709 1.44005 15.0555 1.05546C15.4401 0.670863 15.9301 0.408951 16.4635 0.302842C16.997 0.196732 17.5499 0.251192 18.0524 0.459333C18.5549 0.667473 18.9844 1.01995 19.2865 1.47218C19.5887 1.92442 19.75 2.4561 19.75 3C19.7492 3.7291 19.4592 4.42811 18.9437 4.94367C18.4281 5.45922 17.7291 5.74921 17 5.75ZM17 1.75C16.7528 1.75 16.5111 1.82331 16.3055 1.96066C16.1 2.09802 15.9398 2.29324 15.8452 2.52165C15.7505 2.75005 15.7258 3.00139 15.774 3.24386C15.8223 3.48634 15.9413 3.70907 16.1161 3.88388C16.2909 4.0587 16.5137 4.17775 16.7561 4.22598C16.9986 4.27421 17.2499 4.24946 17.4784 4.15485C17.7068 4.06024 17.902 3.90003 18.0393 3.69446C18.1767 3.4889 18.25 3.24723 18.25 3C18.2495 2.66864 18.1176 2.35101 17.8833 2.1167C17.649 1.8824 17.3314 1.75053 17 1.75ZM10 5.75C9.4561 5.75 8.92442 5.58872 8.47218 5.28654C8.01995 4.98437 7.66747 4.55488 7.45933 4.05238C7.25119 3.54988 7.19673 2.99695 7.30284 2.4635C7.40895 1.93006 7.67086 1.44005 8.05546 1.05546C8.44005 0.670863 8.93006 0.408951 9.4635 0.302842C9.99695 0.196732 10.5499 0.251192 11.0524 0.459333C11.5549 0.667473 11.9844 1.01995 12.2865 1.47218C12.5887 1.92442 12.75 2.4561 12.75 3C12.7492 3.7291 12.4592 4.42811 11.9437 4.94367C11.4281 5.45922 10.7291 5.74921 10 5.75ZM10 1.75C9.75277 1.75 9.5111 1.82331 9.30554 1.96066C9.09998 2.09802 8.93976 2.29324 8.84515 2.52165C8.75054 2.75005 8.72579 3.00139 8.77402 3.24386C8.82225 3.48634 8.9413 3.70907 9.11612 3.88388C9.29093 4.0587 9.51366 4.17775 9.75614 4.22598C9.99861 4.27421 10.2499 4.24946 10.4784 4.15485C10.7068 4.06024 10.902 3.90003 11.0393 3.69446C11.1767 3.4889 11.25 3.24723 11.25 3C11.2495 2.66864 11.1176 2.35101 10.8833 2.1167C10.649 1.8824 10.3314 1.75053 10 1.75ZM3 5.75C2.4561 5.75 1.92442 5.58872 1.47218 5.28654C1.01995 4.98437 0.667473 4.55488 0.459333 4.05238C0.251192 3.54988 0.196732 2.99695 0.302842 2.4635C0.408951 1.93006 0.670863 1.44005 1.05546 1.05546C1.44005 0.670863 1.93006 0.408951 2.4635 0.302842C2.99695 0.196732 3.54988 0.251192 4.05238 0.459333C4.55488 0.667473 4.98437 1.01995 5.28654 1.47218C5.58872 1.92442 5.75 2.4561 5.75 3C5.74921 3.7291 5.45922 4.42811 4.94367 4.94367C4.42811 5.45922 3.7291 5.74921 3 5.75ZM3 1.75C2.75249 1.7498 2.51049 1.82303 2.30461 1.96042C2.09873 2.0978 1.93823 2.29317 1.84342 2.5218C1.74861 2.75043 1.72375 3.00205 1.77199 3.24481C1.82023 3.48758 1.9394 3.71058 2.11441 3.88559C2.28943 4.06061 2.51243 4.17977 2.75519 4.22801C2.99795 4.27625 3.24957 4.25139 3.4782 4.15658C3.70683 4.06177 3.9022 3.90127 4.03959 3.6954C4.17697 3.48952 4.2502 3.24751 4.25 3C4.24947 2.66864 4.11761 2.35101 3.8833 2.1167C3.64899 1.8824 3.33136 1.75053 3 1.75Z" fill="#42526E"/>
</svg>
