<svg width="20" height="19" viewBox="0 0 20 19" fill="none" xmlns="http://www.w3.org/2000/svg">
<path d="M7 8.02708C7.79113 8.02708 8.56448 7.79245 9.22228 7.35286C9.88008 6.91326 10.3928 6.28845 10.6955 5.55744C10.9983 4.82642 11.0775 4.02203 10.9231 3.24598C10.7688 2.46994 10.3878 1.7571 9.82843 1.1976C9.26902 0.638107 8.55629 0.257086 7.78036 0.102721C7.00444 -0.0516438 6.20017 0.0275818 5.46927 0.330379C4.73836 0.633176 4.11365 1.14594 3.67412 1.80384C3.2346 2.46174 3 3.23522 3 4.02647C3 5.0875 3.42143 6.10507 4.17157 6.85533C4.92172 7.60559 5.93913 8.02708 7 8.02708ZM7 2.02616C7.39556 2.02616 7.78224 2.14347 8.11114 2.36327C8.44004 2.58307 8.69638 2.89547 8.84776 3.26098C8.99913 3.62649 9.03874 4.02869 8.96157 4.41671C8.8844 4.80473 8.69392 5.16115 8.41421 5.4409C8.13451 5.72065 7.77814 5.91116 7.39018 5.98834C7.00222 6.06552 6.60009 6.02591 6.23463 5.87451C5.86918 5.72311 5.55682 5.46673 5.33706 5.13778C5.1173 4.80883 5 4.42209 5 4.02647C5 3.49595 5.21071 2.98717 5.58579 2.61203C5.96086 2.2369 6.46957 2.02616 7 2.02616Z" fill="#5755D9"/>
<path d="M15 10.0258C15.5933 10.0258 16.1734 9.8499 16.6667 9.52026C17.1601 9.19061 17.5446 8.72208 17.7716 8.1739C17.9987 7.62572 18.0581 7.02252 17.9424 6.44058C17.8266 5.85864 17.5409 5.32409 17.1213 4.90453C16.7018 4.48497 16.1672 4.19925 15.5853 4.08349C15.0033 3.96774 14.4001 4.02715 13.8519 4.25421C13.3038 4.48127 12.8352 4.86579 12.5056 5.35914C12.1759 5.85249 12 6.43251 12 7.02585C12 7.8215 12.3161 8.58456 12.8787 9.14717C13.4413 9.70978 14.2044 10.0258 15 10.0258ZM15 6.02585C15.1978 6.02585 15.3911 6.0845 15.5556 6.19438C15.72 6.30426 15.8482 6.46044 15.9239 6.64317C15.9996 6.82589 16.0194 7.02696 15.9808 7.22094C15.9422 7.41492 15.847 7.5931 15.7071 7.73296C15.5673 7.87281 15.3891 7.96805 15.1951 8.00663C15.0011 8.04522 14.8 8.02542 14.6173 7.94973C14.4346 7.87404 14.2784 7.74587 14.1685 7.58142C14.0586 7.41697 14 7.22363 14 7.02585C14 6.76063 14.1054 6.50628 14.2929 6.31874C14.4804 6.13121 14.7348 6.02585 15 6.02585Z" fill="#5755D9"/>
<path d="M8.35782 10.1698C9.71406 10.438 10.9605 11.1019 11.94 12.0777L13.14 13.6779C13.7064 14.7036 14.0024 15.8567 14 17.0285C14 17.2937 13.8946 17.5481 13.7071 17.7357C13.5196 17.9232 13.2652 18.0286 13 18.0286C12.7348 18.0286 12.4804 17.9232 12.2929 17.7357C12.1054 17.5481 12 17.2937 12 17.0285C12 15.7022 11.4732 14.4302 10.5355 13.4924C9.59785 12.5546 8.32608 12.0277 7 12.0277C5.67392 12.0277 4.40215 12.5546 3.46447 13.4924C2.52678 14.4302 2 15.7022 2 17.0285C2 17.2937 1.89464 17.5481 1.70711 17.7357C1.51957 17.9232 1.26522 18.0286 1 18.0286C0.734784 18.0286 0.48043 17.9232 0.292893 17.7357C0.105357 17.5481 0 17.2937 0 17.0285C0.00187019 15.6458 0.413069 14.2946 1.18174 13.1453C1.95041 11.996 3.04213 11.1001 4.31923 10.5706C5.59632 10.0411 7.00159 9.90162 8.35782 10.1698Z" fill="#5755D9"/>
<path d="M15 11.0181C13.8918 11.0193 12.8155 11.3887 11.94 12.0682C10.9605 11.0924 9.71406 10.4286 8.35782 10.1604C7.00159 9.89216 5.59632 10.0316 4.31923 10.5611C3.04213 11.0907 1.95041 11.9866 1.18174 13.1358C0.413069 14.2851 0.00187019 15.6363 0 17.019C0 17.2843 0.105357 17.5387 0.292893 17.7262C0.48043 17.9138 0.734784 18.0192 1 18.0192C1.26522 18.0192 1.51957 17.9138 1.70711 17.7262C1.89464 17.5387 2 17.2843 2 17.019C2 15.6927 2.52678 14.4207 3.46447 13.4829C4.40215 12.5451 5.67392 12.0182 7 12.0182C8.32608 12.0182 9.59785 12.5451 10.5355 13.4829C11.4732 14.4207 12 15.6927 12 17.019C12 17.2843 12.1054 17.5387 12.2929 17.7262C12.4804 17.9138 12.7348 18.0192 13 18.0192C13.2652 18.0192 13.5196 17.9138 13.7071 17.7262C13.8946 17.5387 14 17.2843 14 17.019C14.0024 15.8473 13.7064 14.6942 13.14 13.6685C13.5819 13.3192 14.1132 13.1014 14.6731 13.0401C15.233 12.9787 15.7989 13.0762 16.306 13.3214C16.813 13.5666 17.2408 13.9497 17.5404 14.4267C17.84 14.9038 17.9993 15.4555 18 16.0188C18 16.2841 18.1054 16.5385 18.2929 16.7261C18.4804 16.9136 18.7348 17.019 19 17.019C19.2652 17.019 19.5196 16.9136 19.7071 16.7261C19.8946 16.5385 20 16.2841 20 16.0188C20 14.6926 19.4732 13.4206 18.5355 12.4828C17.5979 11.5449 16.3261 11.0181 15 11.0181Z" fill="#5755D9"/>
</svg>
