<svg width="16" height="16" viewBox="0 0 16 16" fill="none" xmlns="http://www.w3.org/2000/svg">
<path d="M7.99062 16C6.15439 15.9979 4.37478 15.3641 2.95054 14.2051C1.52629 13.0461 0.544104 11.4324 0.168847 9.6349C-0.206409 7.83742 0.0481082 5.96555 0.889677 4.33352C1.73125 2.70148 3.10863 1.40863 4.79063 0.671985C6.47263 -0.0646621 8.35684 -0.200263 10.127 0.287945C11.8971 0.776154 13.4455 1.85845 14.512 3.35316C15.5786 4.84787 16.0986 6.664 15.9846 8.4967C15.8706 10.3294 15.1296 12.0671 13.8859 13.4181C13.134 14.2312 12.2223 14.8802 11.2078 15.3245C10.1934 15.7688 9.0981 15.9988 7.99062 16ZM7.99062 9.62342C7.03595 9.62139 6.10239 9.90433 5.30947 10.436C4.51657 10.9677 3.90039 11.724 3.53986 12.608C4.73269 13.7654 6.32939 14.4127 7.99143 14.4127C9.65347 14.4127 11.2502 13.7654 12.443 12.608C12.0823 11.7238 11.4658 10.9674 10.6726 10.4357C9.87941 9.90402 8.94555 9.62117 7.99062 9.62342ZM7.99062 3.16263C8.60795 3.16273 9.21213 3.34092 9.73071 3.67584C10.2493 4.01076 10.6602 4.48817 10.9142 5.05081C11.1683 5.61345 11.2546 6.23743 11.1628 6.8479C11.071 7.45836 10.8051 8.02939 10.3969 8.49248C11.712 9.02694 12.8143 9.98009 13.533 11.2043C14.0267 10.3528 14.3176 9.39901 14.3834 8.41693C14.4491 7.43484 14.2878 6.45081 13.9121 5.54106C13.5364 4.63131 12.9562 3.82028 12.2167 3.17081C11.4771 2.52133 10.5979 2.05085 9.64721 1.79581C8.69654 1.54076 7.69992 1.50801 6.73456 1.70009C5.7692 1.89217 4.86103 2.30392 4.08039 2.90344C3.29976 3.50296 2.66763 4.27415 2.23298 5.15727C1.79833 6.04038 1.57283 7.01171 1.57395 7.99599C1.57579 9.12403 1.87752 10.2313 2.44822 11.2043C3.16717 9.98018 4.26976 9.02728 5.58517 8.49329C5.17697 8.03019 4.91103 7.45916 4.81926 6.8487C4.7275 6.23823 4.8138 5.61425 5.06781 5.05161C5.32183 4.48897 5.73277 4.01156 6.25134 3.67664C6.76992 3.34173 7.3741 3.16353 7.99143 3.16343L7.99062 3.16263ZM7.99062 4.78765C7.67335 4.78765 7.3632 4.88173 7.09939 5.058C6.83559 5.23427 6.62998 5.48481 6.50856 5.77793C6.38715 6.07106 6.35538 6.3936 6.41728 6.70478C6.47918 7.01596 6.63196 7.30179 6.8563 7.52614C7.08065 7.75049 7.36649 7.90327 7.67767 7.96517C7.98884 8.02707 8.31139 7.9953 8.60451 7.87388C8.89764 7.75247 9.14817 7.54686 9.32444 7.28305C9.50071 7.01925 9.59479 6.7091 9.59479 6.39182C9.59479 5.96637 9.42578 5.55834 9.12494 5.2575C8.8241 4.95666 8.41608 4.78765 7.99062 4.78765Z" fill="#42526E"/>
</svg>
