<svg width="12" height="17" viewBox="0 0 12 17" fill="none" xmlns="http://www.w3.org/2000/svg">
<path d="M9.02668 16.192H2.73335C2.10744 16.192 1.50717 15.9434 1.06458 15.5008C0.621994 15.0582 0.373352 14.4579 0.373352 13.832L0.373352 2.81868C0.373352 2.19277 0.621994 1.59249 1.06458 1.14991C1.50717 0.707321 2.10744 0.458679 2.73335 0.458679L9.02668 0.458679C9.6526 0.458679 10.2529 0.707321 10.6955 1.14991C11.138 1.59249 11.3867 2.19277 11.3867 2.81868V13.832C11.3867 14.4579 11.138 15.0582 10.6955 15.5008C10.2529 15.9434 9.6526 16.192 9.02668 16.192V16.192ZM2.73335 2.03201C2.52471 2.03201 2.32462 2.11489 2.17709 2.26242C2.02957 2.40995 1.94669 2.61004 1.94669 2.81868V13.832C1.94669 14.0407 2.02957 14.2407 2.17709 14.3883C2.32462 14.5358 2.52471 14.6187 2.73335 14.6187H9.02668C9.23532 14.6187 9.43541 14.5358 9.58294 14.3883C9.73047 14.2407 9.81335 14.0407 9.81335 13.832V2.81868C9.81335 2.61004 9.73047 2.40995 9.58294 2.26242C9.43541 2.11489 9.23532 2.03201 9.02668 2.03201H2.73335ZM5.88002 13.0328C5.75078 13.0323 5.62363 13.0001 5.50983 12.9388C5.39602 12.8776 5.29906 12.7892 5.22751 12.6816C5.15596 12.574 5.11204 12.4504 5.09961 12.3217C5.08719 12.1931 5.10666 12.0633 5.15628 11.944C5.19616 11.8489 5.25204 11.7614 5.32148 11.6852C5.4138 11.5931 5.52754 11.5254 5.6525 11.4882C5.77746 11.451 5.90971 11.4454 6.03735 11.472L6.17895 11.5342C6.22899 11.5516 6.27658 11.5754 6.32055 11.605L6.43855 11.7001C6.58459 11.8462 6.66663 12.0443 6.66663 12.2508C6.66663 12.4573 6.58459 12.6554 6.43855 12.8015C6.36016 12.8705 6.27284 12.9287 6.17895 12.9745C6.0841 13.0134 5.98252 13.0332 5.88002 13.0328V13.0328Z" fill="#42526E"/>
</svg>
