<svg width="19" height="28" viewBox="0 0 19 28" fill="none" xmlns="http://www.w3.org/2000/svg">
<path d="M16.3433 0.951607H3.02386C2.31975 0.953194 1.64494 1.2336 1.14706 1.73148C0.649183 2.22936 0.368775 2.90417 0.367188 3.60828V24.8917C0.368775 25.5958 0.649183 26.2706 1.14706 26.7685C1.64494 27.2664 2.31975 27.5468 3.02386 27.5484H16.3433C17.0474 27.5468 17.7222 27.2664 18.2201 26.7685C18.718 26.2706 18.9984 25.5958 19 24.8917V3.60828C18.9984 2.90417 18.718 2.22936 18.2201 1.73148C17.7222 1.2336 17.0474 0.953194 16.3433 0.951607ZM3.02386 2.45425H16.3433C16.6494 2.45425 16.9429 2.57583 17.1593 2.79226C17.3757 3.00868 17.4973 3.30221 17.4973 3.60828V17.3364H1.86983V3.60828C1.86983 3.45673 1.89968 3.30666 1.95768 3.16665C2.01567 3.02664 2.10068 2.89942 2.20784 2.79226C2.315 2.6851 2.44222 2.60009 2.58223 2.54209C2.72224 2.4841 2.87231 2.45425 3.02386 2.45425ZM16.3433 26.0457H3.02386C2.87231 26.0457 2.72224 26.0159 2.58223 25.9579C2.44222 25.8999 2.315 25.8149 2.20784 25.7077C2.10068 25.6006 2.01567 25.4734 1.95768 25.3333C1.89968 25.1933 1.86983 25.0433 1.86983 24.8917V18.8391H17.4973V24.8917C17.4973 25.1978 17.3757 25.4913 17.1593 25.7077C16.9429 25.9242 16.6494 26.0457 16.3433 26.0457Z" fill="#5755D9"/>
<path d="M9.68353 19.96C9.20802 19.96 8.74318 20.101 8.34781 20.3652C7.95244 20.6294 7.64428 21.0049 7.46231 21.4442C7.28034 21.8835 7.23273 22.3669 7.32549 22.8333C7.41826 23.2997 7.64724 23.7281 7.98348 24.0643C8.31972 24.4005 8.74811 24.6295 9.21448 24.7223C9.68086 24.8151 10.1643 24.7675 10.6036 24.5855C11.0429 24.4035 11.4184 24.0954 11.6826 23.7C11.9467 23.3046 12.0878 22.8398 12.0878 22.3643C12.0878 21.7266 11.8345 21.1151 11.3836 20.6642C10.9327 20.2133 10.3212 19.96 9.68353 19.96ZM9.68353 23.2659C9.50521 23.2659 9.3309 23.213 9.18263 23.1139C9.03437 23.0148 8.91881 22.874 8.85057 22.7093C8.78233 22.5445 8.76448 22.3633 8.79926 22.1884C8.83405 22.0135 8.91992 21.8528 9.04601 21.7267C9.1721 21.6007 9.33275 21.5148 9.50764 21.48C9.68253 21.4452 9.8638 21.4631 10.0285 21.5313C10.1933 21.5995 10.3341 21.7151 10.4332 21.8634C10.5322 22.0116 10.5851 22.1859 10.5851 22.3643C10.5851 22.6034 10.4901 22.8327 10.321 23.0018C10.152 23.1709 9.92264 23.2659 9.68353 23.2659Z" fill="#5755D9"/>
</svg>
