<svg width="74" height="97" viewBox="0 0 74 97" fill="none" xmlns="http://www.w3.org/2000/svg">
<path d="M36.8933 68.2933C54.2719 68.2933 68.36 54.2052 68.36 36.8267C68.36 19.4481 54.2719 5.35999 36.8933 5.35999C19.5147 5.35999 5.42664 19.4481 5.42664 36.8267C5.42664 54.2052 19.5147 68.2933 36.8933 68.2933Z" fill="#5755D9"/>
<path d="M36.8933 70.6533C55.5753 70.6533 70.72 55.5086 70.72 36.8267C70.72 18.1447 55.5753 3 36.8933 3C18.2114 3 3.06665 18.1447 3.06665 36.8267C3.06665 55.5086 18.2114 70.6533 36.8933 70.6533Z" stroke="white" stroke-width="6" stroke-miterlimit="10"/>
<path d="M36.8933 96.0233C48.7324 96.0233 58.3299 86.6019 58.3299 74.98C58.3299 63.3581 48.7324 53.9367 36.8933 53.9367C25.0541 53.9367 15.4566 63.3581 15.4566 74.98C15.4566 86.6019 25.0541 96.0233 36.8933 96.0233Z" stroke="white" stroke-width="1.5"/>
<path d="M36.8933 48.8233C44.3878 48.8233 50.4633 42.9239 50.4633 35.6467C50.4633 28.3694 44.3878 22.47 36.8933 22.47C29.3988 22.47 23.3233 28.3694 23.3233 35.6467C23.3233 42.9239 29.3988 48.8233 36.8933 48.8233Z" stroke="white" stroke-width="1.5"/>
</svg>
