<svg width="28" height="21" viewBox="0 0 28 21" fill="none" xmlns="http://www.w3.org/2000/svg">
<path d="M26.25 2.875H22.225C20.65 1.3 18.55 0.424999 16.275 0.424999C14 0.424999 11.9 1.3 10.325 2.875H1.75C0.7875 2.875 0 3.6625 0 4.625V13.375C0 14.3375 0.7875 15.125 1.75 15.125H4.375V19.5C4.375 19.9375 4.8125 20.375 5.25 20.375C5.6875 20.375 6.125 19.9375 6.125 19.5V15.125H10.5C12.075 16.6125 14.175 17.4875 16.3625 17.4875C18.375 17.4875 20.3875 16.7 21.875 15.3875V19.5C21.875 19.9375 22.3125 20.375 22.75 20.375C23.1875 20.375 23.625 19.9375 23.625 19.5V15.125H26.25C27.2125 15.125 28 14.3375 28 13.375V4.625C28 3.6625 27.2125 2.875 26.25 2.875ZM26.25 13.375H21.875C21.6125 13.375 21.4375 13.4625 21.2625 13.6375C19.95 14.95 18.2 15.7375 16.3625 15.7375C14.525 15.7375 12.775 14.95 11.4625 13.6375C11.2875 13.4625 11.025 13.375 10.85 13.375H1.75V4.625H10.7625C11.025 4.625 11.2 4.5375 11.375 4.3625C12.6875 2.9625 14.4375 2.175 16.3625 2.175C18.2 2.175 20.0375 2.9625 21.2625 4.275C21.4375 4.45 21.7 4.5375 21.875 4.5375H26.25V13.375Z" fill="#5755D9"/>
<path d="M16.3624 13.8125C13.7374 13.8125 11.5499 11.625 11.5499 9C11.5499 6.375 13.7374 4.1875 16.3624 4.1875C18.9874 4.1875 21.1749 6.375 21.1749 9C21.1749 11.625 18.9874 13.8125 16.3624 13.8125ZM16.3624 5.9375C14.6999 5.9375 13.2999 7.3375 13.2999 9C13.2999 10.6625 14.6999 12.0625 16.3624 12.0625C18.0249 12.0625 19.4249 10.6625 19.4249 9C19.4249 7.3375 18.0249 5.9375 16.3624 5.9375Z" fill="#5755D9"/>
<path d="M8.40002 8.125H4.90002C4.37502 8.125 4.02502 7.775 4.02502 7.25C4.02502 6.725 4.37502 6.375 4.90002 6.375H8.40002C8.92502 6.375 9.27502 6.725 9.27502 7.25C9.27502 7.775 8.92502 8.125 8.40002 8.125Z" fill="#5755D9"/>
<path d="M8.40002 11.625H4.90002C4.37502 11.625 4.02502 11.275 4.02502 10.75C4.02502 10.225 4.37502 9.875 4.90002 9.875H8.40002C8.92502 9.875 9.27502 10.225 9.27502 10.75C9.27502 11.275 8.92502 11.625 8.40002 11.625Z" fill="#5755D9"/>
</svg>
