<svg width="16" height="17" viewBox="0 0 16 17" fill="none" xmlns="http://www.w3.org/2000/svg">
<path fill-rule="evenodd" clip-rule="evenodd" d="M7.25 3.00705C4.90279 3.00705 3 4.90984 3 7.25705C3 9.60426 4.90279 11.507 7.25 11.507C9.59721 11.507 11.5 9.60426 11.5 7.25705C11.5 4.90984 9.59721 3.00705 7.25 3.00705ZM1 7.25705C1 3.80527 3.79822 1.00705 7.25 1.00705C10.7018 1.00705 13.5 3.80527 13.5 7.25705C13.5 10.7088 10.7018 13.507 7.25 13.507C3.79822 13.507 1 10.7088 1 7.25705Z" fill="#5755D9"/>
<path fill-rule="evenodd" clip-rule="evenodd" d="M10.2929 10.2999C10.6834 9.90942 11.3166 9.90942 11.7071 10.2999L14.7071 13.2999C15.0976 13.6905 15.0976 14.3236 14.7071 14.7142C14.3166 15.1047 13.6834 15.1047 13.2929 14.7142L10.2929 11.7142C9.90237 11.3236 9.90237 10.6905 10.2929 10.2999Z" fill="#5755D9"/>
</svg>
