<svg width="86" height="86" viewBox="0 0 86 86" fill="none" xmlns="http://www.w3.org/2000/svg">
<g clip-path="url(#clip0_71_2)">
<path d="M73.4211 12.5831C56.6459 -4.19384 29.3536 -4.19384 12.5816 12.579C-4.19365 29.3518 -4.19203 56.6457 12.5832 73.4218C29.3536 90.1938 56.6459 90.1938 73.4195 73.4185C90.1932 56.6457 90.1915 29.3535 73.4211 12.5831ZM68.727 68.7277C54.5425 82.913 31.4587 82.9146 17.2733 68.7293C3.08471 54.5415 3.08715 31.4569 17.2733 17.2715C31.4587 3.08696 54.5409 3.08534 68.7286 17.2731C82.914 31.4585 82.9124 54.5431 68.727 68.7277ZM25.7363 30.3776C25.5863 30.2243 25.5353 29.9997 25.6034 29.797C25.6715 29.5943 25.8474 29.4467 26.0583 29.4143L29.7915 28.8442L31.466 25.2772C31.56 25.0769 31.7611 24.9496 31.9825 24.9496C32.2038 24.9496 32.4049 25.0769 32.499 25.2772L34.1734 28.8442L37.9067 29.4143C38.1175 29.4467 38.2935 29.5943 38.3616 29.797C38.4297 29.9997 38.3786 30.2227 38.2286 30.3768L35.5106 33.1637L36.1544 37.1021C36.1893 37.3178 36.0993 37.5335 35.9201 37.66C35.8219 37.7289 35.7068 37.7638 35.5917 37.7638C35.4968 37.7638 35.4019 37.7411 35.316 37.6932L31.9833 35.8518L28.6522 37.6932C28.4625 37.7995 28.2273 37.7865 28.0481 37.66C27.8697 37.5343 27.7789 37.3178 27.8138 37.1021L28.4552 33.1637L25.7363 30.3776ZM48.5364 30.3776C48.3855 30.2243 48.3353 29.9997 48.4034 29.797C48.4715 29.5943 48.6475 29.4467 48.8583 29.4143L52.5915 28.8442L54.2652 25.2772C54.3592 25.0769 54.5603 24.9496 54.7817 24.9496C55.0031 24.9496 55.2042 25.0769 55.299 25.2772L56.9727 28.8442L60.7059 29.4143C60.9167 29.4467 61.0927 29.5943 61.1608 29.797C61.2289 29.9997 61.1778 30.2227 61.0278 30.3768L58.309 33.1645L58.9528 37.1029C58.9877 37.3186 58.8977 37.5343 58.7185 37.6608C58.6203 37.7297 58.5052 37.7646 58.3901 37.7646C58.2952 37.7646 58.2011 37.7419 58.1144 37.6941L54.7817 35.8526L51.4514 37.6941C51.2617 37.8003 51.0266 37.7873 50.8474 37.6608C50.669 37.5351 50.5781 37.3186 50.613 37.1029L51.2544 33.1645L48.5364 30.3776ZM63.6907 49.5157C63.9064 49.8425 63.9429 50.2561 63.7864 50.6153C60.3118 58.6453 52.1764 63.8357 43.0581 63.8357C33.7445 63.8357 25.5596 58.621 22.2074 50.552C22.0574 50.1928 22.098 49.7825 22.3137 49.459C22.5302 49.1371 22.8926 48.9424 23.2802 48.9424C23.281 48.9424 23.281 48.9424 23.2818 48.9424L62.7209 48.9927C63.1126 48.9927 63.4766 49.1889 63.6907 49.5157Z" fill="#5755D9"/>
</g>
<defs>
<clipPath id="clip0_71_2">
<rect width="86" height="86" fill="white"/>
</clipPath>
</defs>
</svg>
