<svg width="24" height="21" viewBox="0 0 24 21" fill="none" xmlns="http://www.w3.org/2000/svg">
<path d="M13.259 2.56561L13.2602 2.56444C13.7194 2.10516 14.4292 1.97641 15.062 2.23825L13.259 2.56561ZM13.259 2.56561L9.52413 6.21865C9.40729 6.333 9.25095 6.39844 9.08624 6.39844H3.72744C2.87901 6.39844 2.10132 7.24361 2.10132 8.2329V12.8259C2.10132 13.8161 2.87896 14.6603 3.72744 14.6603H9.08529C9.24812 14.6603 9.40616 14.7226 9.52449 14.8395C9.52456 14.8396 9.52463 14.8397 9.5247 14.8398L13.2515 18.4952L13.2515 18.4952M13.259 2.56561L13.2515 18.4952M13.2515 18.4952L13.2527 18.4964M13.2515 18.4952L13.2527 18.4964M13.2527 18.4964C13.6069 18.8515 14.0303 18.927 14.3299 18.927C14.571 18.927 14.8245 18.8761 15.062 18.7777L13.2527 18.4964ZM12.3784 1.67581C12.3786 1.67565 12.3787 1.67549 12.3789 1.67533C12.9113 1.14414 13.6238 0.849993 14.3823 0.849993C14.7771 0.849993 15.1686 0.928183 15.5435 1.08508C16.6108 1.52724 17.3225 2.62944 17.3225 3.82447V17.2343C17.3225 18.4235 16.6263 19.4848 15.5423 19.9338C14.4363 20.3922 13.1681 20.1798 12.3722 19.3863C12.3721 19.3862 12.3719 19.386 12.3718 19.3859L8.83088 15.9117H3.72744C2.15605 15.9117 0.85 14.4897 0.85 12.8259V8.23195C0.85 6.56812 2.15605 5.14617 3.72744 5.14617H8.83006L12.3784 1.67581ZM16.0712 3.82447C16.0712 3.12212 15.6591 2.48635 15.0622 2.23832L15.0621 18.7777C15.6729 18.5239 16.0712 17.9197 16.0712 17.2334V3.82447Z" fill="#5755D9" stroke="#5755D9" stroke-width="0.3"/>
<path d="M18.1317 8.29474C18.1317 7.95028 18.4129 7.66908 18.7574 7.66908C20.3271 7.66908 21.6034 8.94533 21.6034 10.5142C21.6034 12.0839 20.3272 13.3602 18.7574 13.3602C18.4131 13.3602 18.1317 13.0802 18.1317 12.7346C18.1317 12.389 18.4131 12.1089 18.7574 12.1089C19.6372 12.1089 20.3521 11.3932 20.3521 10.5142C20.3521 9.63528 19.6373 8.9204 18.7574 8.9204C18.4131 8.9204 18.1317 8.64034 18.1317 8.29474Z" fill="#5755D9" stroke="#5755D9" stroke-width="0.3"/>
<path d="M18.1317 6.07434C18.1317 5.72988 18.4129 5.44868 18.7574 5.44868C21.5516 5.44868 23.8219 7.72106 23.8219 10.5142C23.8219 13.3073 21.5515 15.5787 18.7574 15.5787C18.4131 15.5787 18.1317 15.2986 18.1317 14.953C18.1317 14.6074 18.4131 14.3274 18.7574 14.3274C20.8598 14.3274 22.5706 12.6174 22.5706 10.5142C22.5706 8.41084 20.8597 6.7 18.7574 6.7C18.4131 6.7 18.1317 6.41994 18.1317 6.07434Z" fill="#5755D9" stroke="#5755D9" stroke-width="0.3"/>
</svg>
