<svg width="20" height="20" viewBox="0 0 20 20" fill="none" xmlns="http://www.w3.org/2000/svg">
<path d="M15.5236 19.0329C15.3637 19.0335 15.206 18.9958 15.0636 18.9229L9.96363 16.2525L4.86363 18.9229C4.69802 19.01 4.51131 19.0488 4.32471 19.0351C4.13811 19.0213 3.95911 18.9555 3.80806 18.8451C3.65701 18.7346 3.53997 18.584 3.47024 18.4103C3.40052 18.2367 3.3809 18.047 3.41363 17.8627L4.41363 12.2318L0.29363 8.23122C0.165087 8.10293 0.0739014 7.94205 0.0298575 7.76584C-0.0141863 7.58964 -0.00942525 7.40477 0.0436298 7.23107C0.10159 7.05332 0.208206 6.89537 0.35138 6.77516C0.494554 6.65494 0.668552 6.57727 0.85363 6.55096L6.55363 5.72084L9.06363 0.590045C9.14551 0.420948 9.27337 0.27834 9.43254 0.178556C9.59171 0.0787717 9.77577 0.0258484 9.96363 0.0258484C10.1515 0.0258484 10.3355 0.0787717 10.4947 0.178556C10.6539 0.27834 10.7817 0.420948 10.8636 0.590045L13.4036 5.71083L19.1036 6.54096C19.2887 6.56727 19.4627 6.64494 19.6059 6.76515C19.7491 6.88537 19.8557 7.04331 19.9136 7.22107C19.9667 7.39477 19.9714 7.57964 19.9274 7.75584C19.8834 7.93204 19.7922 8.09293 19.6636 8.22122L15.5436 12.2218L16.5436 17.8527C16.5793 18.0402 16.5606 18.234 16.4898 18.4112C16.4189 18.5885 16.2988 18.7417 16.1436 18.8529C15.9625 18.9798 15.7445 19.0431 15.5236 19.0329ZM9.96363 14.1321C10.1239 14.1281 10.2825 14.166 10.4236 14.2421L14.1936 16.2425L13.4736 12.0318C13.4457 11.871 13.4575 11.7059 13.5081 11.5507C13.5586 11.3956 13.6464 11.2551 13.7636 11.1417L16.7636 8.21122L12.5636 7.59112C12.4096 7.56011 12.2651 7.49324 12.1417 7.39593C12.0184 7.29862 11.9197 7.17361 11.8536 7.03104L9.96363 3.28046L8.07363 7.03104C8.00128 7.17476 7.89532 7.29891 7.76475 7.39293C7.63419 7.48695 7.48286 7.54808 7.32363 7.57112L3.12363 8.19122L6.12363 11.1217C6.24091 11.2351 6.32865 11.3755 6.37919 11.5307C6.42974 11.6859 6.44157 11.851 6.41363 12.0118L5.69363 16.1724L9.46363 14.1721C9.62337 14.1127 9.79648 14.0989 9.96363 14.1321Z" fill="#5755D9"/>
</svg>
