<svg width="16" height="17" viewBox="0 0 16 17" fill="none" xmlns="http://www.w3.org/2000/svg">
<path d="M8.05335 16.192C6.49747 16.192 4.97653 15.7306 3.68286 14.8662C2.38919 14.0018 1.3809 12.7732 0.785494 11.3358C0.190085 9.89835 0.0342983 8.31662 0.337835 6.79064C0.641372 5.26466 1.3906 3.86295 2.49077 2.76278C3.59095 1.6626 4.99265 0.913376 6.51864 0.609839C8.04462 0.306301 9.62634 0.462088 11.0638 1.0575C12.5012 1.65291 13.7298 2.6612 14.5942 3.95486C15.4586 5.24853 15.92 6.76947 15.92 8.32535C15.9177 10.411 15.0882 12.4106 13.6134 13.8854C12.1386 15.3602 10.139 16.1897 8.05335 16.192ZM8.05335 2.03202C6.80864 2.03202 5.59189 2.40111 4.55696 3.09263C3.52202 3.78415 2.71539 4.76704 2.23906 5.917C1.76274 7.06695 1.63811 8.33233 1.88094 9.55312C2.12377 10.7739 2.72315 11.8953 3.60329 12.7754C4.48343 13.6555 5.60479 14.2549 6.82558 14.4978C8.04637 14.7406 9.31174 14.616 10.4617 14.1396C11.6117 13.6633 12.5945 12.8567 13.2861 11.8217C13.9776 10.7868 14.3467 9.57005 14.3467 8.32535C14.3448 6.65683 13.6812 5.05718 12.5013 3.87736C11.3215 2.69754 9.72187 2.03389 8.05335 2.03202ZM6.81356 11.0787C6.60703 11.0786 6.40898 10.9965 6.26289 10.8505L4.41108 8.99402C4.32873 8.92349 4.26185 8.83671 4.21463 8.73911C4.16741 8.64152 4.14088 8.53521 4.13669 8.42687C4.13251 8.31853 4.15076 8.2105 4.19031 8.10955C4.22986 8.0086 4.28985 7.91692 4.36651 7.84025C4.44318 7.76359 4.53486 7.7036 4.63581 7.66405C4.73676 7.6245 4.8448 7.60624 4.95314 7.61043C5.06147 7.61461 5.16778 7.64115 5.26538 7.68837C5.36297 7.73558 5.44976 7.80247 5.52028 7.88482L6.81828 9.18282L10.1923 5.80015C10.3397 5.65363 10.5391 5.57139 10.7469 5.57139C10.9547 5.57139 11.1541 5.65363 11.3015 5.80015C11.3752 5.87328 11.4338 5.96029 11.4737 6.05615C11.5136 6.15201 11.5342 6.25483 11.5342 6.35868C11.5342 6.46253 11.5136 6.56535 11.4737 6.66122C11.4338 6.75708 11.3752 6.84409 11.3015 6.91722L7.36816 10.8505C7.22197 10.9964 7.02399 11.0784 6.81749 11.0787H6.81356Z" fill="#FFBA49"/>
</svg>
