<svg width="107" height="110" viewBox="0 0 107 110" fill="none" xmlns="http://www.w3.org/2000/svg">
<path d="M15.0048 21C9.69587 27.083 5.85445 34.3037 3.77654 42.1056C1.69864 49.9074 1.43974 58.0823 3.01979 66" stroke="#DFE1E6" stroke-width="3" stroke-miterlimit="10" stroke-linecap="round" stroke-linejoin="round"/>
<path d="M84.0048 11.738C78.3255 7.55845 71.8261 4.628 64.9337 3.13924C58.0412 1.65048 50.9118 1.63711 44.0138 3.1C36.3406 4.73451 29.1499 8.12295 23.0048 13" stroke="#FFBA49" stroke-width="3" stroke-miterlimit="10" stroke-linecap="round" stroke-linejoin="round"/>
<path d="M105.005 45C103.238 34.9755 98.7394 25.6327 92.0048 18" stroke="#DFE1E6" stroke-width="3" stroke-miterlimit="10" stroke-linecap="round" stroke-linejoin="round"/>
<path d="M42.0048 105C52.3748 91.806 57.3118 73.545 53.9668 55" stroke="#DFE1E6" stroke-width="3" stroke-miterlimit="10" stroke-linecap="round" stroke-linejoin="round"/>
<path d="M68.0048 58.678C67.7728 56.6187 67.4491 54.552 67.0338 52.478L67.0488 52.473C66.7213 50.7857 66.0631 49.1798 65.1121 47.748C64.1611 46.3163 62.9361 45.0869 61.5077 44.1308C60.0793 43.1748 58.4758 42.5109 56.7896 42.1775C55.1035 41.844 53.368 41.8477 51.6832 42.1882C49.9984 42.5287 48.3977 43.1993 46.9734 44.1614C45.549 45.1235 44.3292 46.358 43.3842 47.7937C42.4392 49.2295 41.7878 50.8381 41.4675 52.5268C41.1471 54.2155 41.1642 55.9509 41.5178 57.633C41.8918 60.8 45.9868 83.136 28.0048 100" stroke="#DFE1E6" stroke-width="3" stroke-miterlimit="10" stroke-linecap="round" stroke-linejoin="round"/>
<path d="M55.0048 108C62.9061 97.226 67.4307 84.3485 68.0048 71" stroke="#FFBA49" stroke-width="3" stroke-miterlimit="10" stroke-linecap="round" stroke-linejoin="round"/>
<path d="M27.7728 47C26.7642 51.0757 26.6303 55.3188 27.3798 59.45L27.4078 59.444C29.6778 72.033 25.3108 84.392 17.0048 92" stroke="#DFE1E6" stroke-width="3" stroke-miterlimit="10" stroke-linecap="round" stroke-linejoin="round"/>
<path d="M72.3218 103C80.5882 86.5672 83.045 67.8189 79.2918 49.811C78.3518 45.367 70.6728 25.2 48.0938 29.632C42.223 30.7608 36.9058 33.8399 33.0048 38.37" stroke="#FFBA49" stroke-width="3" stroke-miterlimit="10" stroke-linecap="round" stroke-linejoin="round"/>
<path d="M44.0048 18C24.0518 22.636 11.2568 42.74 15.3238 63.372H15.3428C16.0191 66.7601 15.7892 70.2667 14.6763 73.5375C13.5634 76.8083 11.607 79.7274 9.00476 82" stroke="#DFE1E6" stroke-width="3" stroke-miterlimit="10" stroke-linecap="round" stroke-linejoin="round"/>
<path d="M88.8528 92C92.5678 77.222 93.0061 61.8103 90.1368 46.845H90.1298C86.6488 28.577 71.8418 15.785 55.0048 15" stroke="#DFE1E6" stroke-width="3" stroke-miterlimit="10" stroke-linecap="round" stroke-linejoin="round"/>
</svg>
