<svg width="28" height="28" viewBox="0 0 28 28" fill="none" xmlns="http://www.w3.org/2000/svg">
<path d="M26.25 6.9125H16.1L21.4375 1.4875C21.7875 1.1375 21.7875 0.6125 21.4375 0.2625C21.0875 -0.0875 20.5625 -0.0875 20.2125 0.2625L14 6.475L7.7875 0.2625C7.4375 -0.0875 6.9125 -0.0875 6.5625 0.2625C6.2125 0.6125 6.2125 1.1375 6.5625 1.4875L11.9 6.825H1.75C0.7875 6.825 0 7.6125 0 8.575V26.25C0 27.2125 0.7875 28 1.75 28H26.25C27.2125 28 28 27.2125 28 26.25V8.6625C28 7.7 27.2125 6.9125 26.25 6.9125ZM26.25 26.25H1.75V8.6625H26.25V26.25Z" fill="#5755D9"/>
<path d="M16.7125 24.4125H4.46252C3.93752 24.4125 3.58752 24.0625 3.58752 23.5375V11.2875C3.58752 10.7625 3.93752 10.4125 4.46252 10.4125H16.7125C17.2375 10.4125 17.5875 10.7625 17.5875 11.2875V23.5375C17.5875 24.0625 17.15 24.4125 16.7125 24.4125ZM5.33752 22.6625H15.8375V12.1625H5.33752V22.6625Z" fill="#5755D9"/>
<path d="M23.1875 13.825C22.6625 13.825 22.3125 13.475 22.3125 12.95V11.375C22.3125 10.85 22.6625 10.5 23.1875 10.5C23.7125 10.5 24.0625 10.85 24.0625 11.375V12.95C24.0625 13.3875 23.7125 13.825 23.1875 13.825Z" fill="#5755D9"/>
<path d="M23.1875 19.075C22.6625 19.075 22.3125 18.725 22.3125 18.2V16.625C22.3125 16.1 22.6625 15.75 23.1875 15.75C23.7125 15.75 24.0625 16.1 24.0625 16.625V18.2C24.0625 18.6375 23.7125 19.075 23.1875 19.075Z" fill="#5755D9"/>
</svg>
