<svg width="14" height="32" viewBox="0 0 14 32" fill="none" xmlns="http://www.w3.org/2000/svg">
<path d="M5.81487 7.86941L5.81445 7.86983C5.67265 8.01019 5.48712 8.08126 5.3016 8.08126C5.11664 8.08126 4.9305 8.01179 4.78928 7.86911L4.86035 7.79876L4.78928 7.8691C4.50946 7.58639 4.50946 7.12738 4.78928 6.84466L4.7896 6.84433C6.04619 5.58646 8.09203 5.58652 9.34981 6.8443C9.63255 7.12704 9.63261 7.58647 9.34999 7.86929C9.06939 8.1526 8.60718 8.15201 8.32464 7.86947L8.32458 7.86941C7.63365 7.17729 6.50581 7.17729 5.81487 7.86941Z" fill="#5755D9" stroke="#5755D9" stroke-width="0.2"/>
<path d="M4.04727 6.10196L4.04691 6.10232C3.9051 6.24268 3.71957 6.31375 3.53406 6.31375C3.349 6.31375 3.16311 6.24423 3.02085 6.10196C2.73804 5.81916 2.73804 5.35959 3.02085 5.07679C4.10209 3.99554 5.53878 3.4 7.06906 3.4C8.59934 3.4 10.036 3.99554 11.1173 5.07679C11.4001 5.35959 11.4001 5.81916 11.1173 6.10196C10.8345 6.38476 10.3749 6.38476 10.0921 6.10196C8.47865 4.48851 5.66072 4.48851 4.04727 6.10196Z" fill="#5755D9" stroke="#5755D9" stroke-width="0.2"/>
<path d="M2.27977 4.33446L2.27941 4.33482C2.13768 4.47511 1.95343 4.54625 1.76656 4.54625C1.58105 4.54625 1.39552 4.47518 1.25371 4.33483L1.25299 4.3341C0.973171 4.05138 0.973171 3.59237 1.25299 3.30965L1.25341 3.30923C2.80961 1.75556 4.8725 0.9 7.07156 0.9C9.27059 0.9 11.3335 1.75429 12.8897 3.30926L12.8901 3.30965C13.17 3.59237 13.17 4.05138 12.8901 4.3341L12.8898 4.33446C12.6072 4.617 12.145 4.61759 11.8644 4.33429C10.5845 3.05441 8.88373 2.35 7.07156 2.35C5.26183 2.35 3.55852 3.05572 2.27977 4.33446Z" fill="#5755D9" stroke="#5755D9" stroke-width="0.2"/>
<path d="M7.14781 31.1H6.99156C3.87629 31.1 1.34406 28.5652 1.34406 25.4512V11.115C1.34406 9.61596 2.56515 8.3975 4.06156 8.3975H10.0778C11.5768 8.3975 12.7953 9.6173 12.7953 11.115V25.4525C12.7953 28.5652 10.2593 31.1 7.14781 31.1ZM11.3441 11.1162C11.3441 10.419 10.7763 9.85 10.0766 9.85H4.06031C3.35935 9.85 2.79281 10.4189 2.79281 11.1162V25.4525C2.79281 27.7685 4.67552 29.65 6.99031 29.65H7.14656C9.46133 29.65 11.3441 27.7673 11.3441 25.4525V11.1162Z" fill="#5755D9" stroke="#5755D9" stroke-width="0.2"/>
<path d="M9.04409 14.125C9.04409 15.214 8.15807 16.1 7.06909 16.1C5.98011 16.1 5.09409 15.214 5.09409 14.125C5.09409 13.036 5.98011 12.15 7.06909 12.15C8.15807 12.15 9.04409 13.036 9.04409 14.125ZM7.59409 14.125C7.59409 13.8354 7.35774 13.6 7.06909 13.6C6.78044 13.6 6.54409 13.8354 6.54409 14.125C6.54409 14.4146 6.78044 14.65 7.06909 14.65C7.35774 14.65 7.59409 14.4146 7.59409 14.125Z" fill="#5755D9" stroke="#5755D9" stroke-width="0.2"/>
</svg>
