<svg width="24" height="26" viewBox="0 0 24 26" fill="none" xmlns="http://www.w3.org/2000/svg">
<path d="M2.72573 10.1601C2.72573 15.2864 6.84261 19.461 11.9063 19.461C16.9699 19.461 21.0878 15.2874 21.0878 10.1611C21.0878 5.03472 16.97 0.860101 11.9063 0.860101C6.84262 0.860101 2.72573 5.03474 2.72573 10.1601ZM4.02292 10.1611C4.02292 5.75345 7.56148 2.17059 11.9063 2.17059C16.2501 2.17059 19.7907 5.75449 19.7907 10.1611C19.7907 14.5687 16.2501 18.1526 11.9063 18.1526C7.56152 18.1526 4.02292 14.5677 4.02292 10.1611Z" fill="#5755D9" stroke="#5755D9" stroke-width="0.3"/>
<path d="M8.26614 10.3844C8.26614 12.4156 9.89702 14.0711 11.9063 14.0711C13.9156 14.0711 15.5465 12.4156 15.5465 10.3844C15.5465 8.35319 13.9156 6.69769 11.9063 6.69769C9.89702 6.69769 8.26614 8.35319 8.26614 10.3844ZM9.56333 10.3844C9.56333 9.0729 10.6169 8.00817 11.9063 8.00817C13.1957 8.00817 14.2493 9.0729 14.2493 10.3844C14.2493 11.6959 13.1957 12.7606 11.9063 12.7606C10.6169 12.7606 9.56333 11.6959 9.56333 10.3844Z" fill="#5755D9" stroke="#5755D9" stroke-width="0.3"/>
<path d="M12.9034 10.5344C13.5388 10.5344 14.0506 10.0129 14.0506 9.37389C14.0506 8.73489 13.5388 8.2134 12.9034 8.2134C12.268 8.2134 11.7562 8.73489 11.7562 9.37389C11.7562 10.0129 12.268 10.5344 12.9034 10.5344Z" fill="#5755D9" stroke="#5755D9" stroke-width="0.3"/>
<path d="M19.8939 17.1041L19.8936 17.1038C19.6348 16.8612 19.2303 16.8696 18.9843 17.128L19.093 17.2314L18.9847 17.1277C17.103 19.0923 14.5891 20.1725 11.9062 20.1725C9.22347 20.1725 6.71063 19.0923 4.82789 17.1277C4.5813 16.869 4.17681 16.8598 3.91858 17.1041C1.85253 19.0513 0.6625 21.6572 0.6625 24.2513C0.6625 24.6111 0.951161 24.9065 1.3111 24.9065H22.5014C22.8601 24.9065 23.15 24.6113 23.15 24.2513C23.15 21.6552 21.96 19.0513 19.8939 17.1041ZM1.98898 23.596C2.153 21.7763 2.99205 19.972 4.36532 18.5032C6.4337 20.4304 9.08716 21.484 11.9062 21.484C14.7254 21.484 17.3779 20.4293 19.4471 18.5032C20.8196 19.972 21.6595 21.7755 21.8226 23.596H1.98898Z" fill="#5755D9" stroke="#5755D9" stroke-width="0.3"/>
</svg>
